<svg version="1.1" id="Layer_1" xmlns="http://www.w3.org/2000/svg" xmlns:xlink="http://www.w3.org/1999/xlink" x="0px" y="0px" width="100%" viewBox="0 0 2560 1463" enable-background="new 0 0 2560 1463" xml:space="preserve">

<path fill="#FEFEFE" opacity="1.000000" stroke="none" d="
M1289.936768,783.077087 
	C1272.998047,783.078247 1256.547852,783.078247 1239.655640,783.078247 
	C1239.655640,826.899231 1239.655640,869.643311 1239.655640,912.654602 
	C1209.301270,912.654602 1179.395142,912.654602 1149.202393,912.654602 
	C1149.202393,791.700012 1149.202393,670.780212 1149.202393,549.535461 
	C1150.181030,549.426147 1151.282837,549.195312 1152.384644,549.195435 
	C1213.547729,549.200684 1274.711304,549.099915 1335.873657,549.322754 
	C1354.740723,549.391479 1373.439453,551.429199 1391.331665,558.059204 
	C1420.040405,568.697388 1438.985962,588.746765 1446.921265,618.226074 
	C1456.679810,654.478821 1455.678467,690.413940 1439.930664,725.070374 
	C1433.046875,740.219421 1422.742798,752.832153 1408.148926,761.290955 
	C1402.909302,764.327881 1397.037231,766.273438 1390.896484,768.960938 
	C1417.626343,816.326050 1444.675537,864.257080 1472.140503,912.924805 
	C1470.046509,912.924805 1468.642578,912.924744 1467.238647,912.924744 
	C1436.073608,912.924744 1404.908203,912.855713 1373.744019,913.020020 
	C1370.207153,913.038635 1368.558350,911.801880 1366.965332,908.821960 
	C1345.890991,869.398743 1324.518921,830.133484 1303.680420,790.586731 
	C1300.496582,784.544495 1297.064453,781.689026 1289.936768,783.077087 
M1328.412354,619.985657 
	C1324.766235,619.639465 1321.122803,619.026428 1317.473511,618.989624 
	C1289.648438,618.708923 1261.822021,618.538025 1233.995972,618.354858 
	C1233.371948,618.350769 1232.746338,618.604858 1232.146362,618.733215 
	C1232.146362,651.833557 1232.146362,684.749329 1232.146362,717.922913 
	C1258.226562,717.922913 1284.030396,718.047119 1309.831543,717.833740 
	C1316.121704,717.781799 1322.489990,717.075134 1328.670654,715.882996 
	C1345.138184,712.706726 1357.641235,703.973511 1361.381592,687.024414 
	C1363.528076,677.297668 1364.022827,666.800537 1363.038818,656.870544 
	C1360.759521,633.869507 1351.594482,624.606262 1328.412354,619.985657 
z" data-index="1" style="opacity: 1; visibility: visible; fill: rgb(255, 255, 255); stroke: rgb(255, 255, 255);"></path>
<path fill="#FEFEFE" opacity="1.000000" stroke="none" d="
M2310.385254,543.374756 
	C2387.864746,536.968506 2455.786377,572.943298 2491.988525,612.455933 
	C2469.965088,629.658508 2447.960205,646.846313 2426.963623,663.246521 
	C2414.852783,653.712036 2403.658447,643.736206 2391.320312,635.466248 
	C2374.106201,623.927917 2354.877686,616.767578 2333.951172,615.831055 
	C2315.246826,614.993958 2297.998291,620.014404 2283.187012,631.796204 
	C2268.088379,643.806641 2268.193848,661.878845 2283.363281,673.860962 
	C2294.505859,682.662415 2307.826172,686.659363 2321.476318,688.914368 
	C2340.841553,692.113586 2360.402100,694.109253 2379.812256,697.060425 
	C2402.309570,700.480896 2424.002930,706.652832 2443.753418,718.354431 
	C2473.095459,735.738953 2489.729492,761.179138 2491.203369,795.585693 
	C2492.926025,835.802795 2480.191406,869.945923 2447.375732,894.950806 
	C2428.512451,909.324219 2406.848389,917.589417 2383.794922,922.329407 
	C2343.329834,930.649292 2303.027100,930.276611 2263.190430,918.757568 
	C2223.111816,907.168579 2189.293213,885.092163 2160.000488,855.727356 
	C2159.776611,855.502991 2159.675293,855.156494 2159.275146,854.426331 
	C2182.676270,839.430908 2206.102051,824.419617 2229.128906,809.664001 
	C2238.604492,817.096375 2247.564941,824.807373 2257.212158,831.533936 
	C2272.167969,841.962402 2288.233643,850.607666 2306.503174,853.352722 
	C2330.519531,856.961426 2354.378906,855.988342 2377.265137,846.831726 
	C2392.230469,840.844116 2401.864502,830.167358 2404.221436,813.722412 
	C2405.532227,804.578125 2402.263916,797.397400 2394.900146,792.045105 
	C2385.369385,785.118042 2374.264404,781.996216 2362.944824,780.097412 
	C2340.958496,776.409302 2318.877930,773.276550 2296.818848,770.032104 
	C2271.813477,766.354370 2247.490967,760.533447 2225.670654,747.104248 
	C2198.531738,730.401489 2184.297363,706.008972 2182.924561,674.164551 
	C2181.760986,647.174927 2185.876465,621.360229 2200.739746,598.165833 
	C2217.364746,572.222473 2242.052246,557.639038 2271.136719,550.155579 
	C2283.802979,546.896484 2296.976318,545.608826 2310.385254,543.374756 
z" data-index="2" style="opacity: 1; visibility: visible; fill: rgb(255, 255, 255); stroke: rgb(255, 255, 255);"></path>
<path fill="#FEFEFE" opacity="1.000000" stroke="none" d="
M1912.542358,919.426636 
	C1870.707642,907.773193 1836.058594,885.093811 1805.612793,854.610046 
	C1829.430420,839.351562 1852.917114,824.305176 1876.591797,809.138306 
	C1889.901855,822.360352 1904.809326,833.447388 1921.503174,842.026794 
	C1955.666016,859.583740 1990.675049,859.183411 2025.829468,845.806946 
	C2040.634399,840.173645 2049.185303,828.611511 2051.066162,812.621826 
	C2052.095459,803.870728 2048.623047,797.048889 2041.577393,791.948059 
	C2032.168335,785.135864 2021.250000,781.978210 2010.096436,780.124817 
	C1985.804688,776.088257 1961.394653,772.769409 1937.064453,768.956787 
	C1918.436768,766.037842 1900.334717,761.246033 1883.243042,753.023621 
	C1845.672852,734.949646 1826.939331,702.685120 1829.382202,661.022766 
	C1830.616943,639.962402 1834.571533,619.777832 1845.572021,601.472839 
	C1861.072144,575.680786 1884.622192,560.432068 1912.768677,552.186707 
	C1983.323242,531.518188 2048.298828,544.768372 2108.201172,586.011108 
	C2116.536621,591.749878 2124.053955,598.681885 2131.897949,605.125061 
	C2134.327637,607.120911 2136.584473,609.327332 2139.393555,611.864990 
	C2116.754639,629.552917 2094.780762,646.721069 2073.391113,663.433044 
	C2063.237061,655.047607 2053.739014,646.208984 2043.252563,638.763000 
	C2024.645508,625.550781 2003.928589,616.963074 1980.887207,615.788452 
	C1962.007568,614.826050 1944.532471,619.888367 1929.702759,631.942200 
	C1914.670532,644.160645 1915.065063,662.082642 1930.369385,673.994629 
	C1941.566040,682.709595 1954.878296,686.671875 1968.536499,688.905762 
	C1987.907959,692.073975 2007.472900,694.044556 2026.869263,697.076965 
	C2053.406250,701.225769 2078.767090,708.843628 2100.726074,725.112488 
	C2124.782227,742.934937 2137.076172,767.082825 2138.046143,796.850342 
	C2139.207764,832.504395 2128.993896,863.893066 2101.941895,888.456970 
	C2085.344482,903.527893 2065.635742,913.067749 2044.205322,918.863586 
	C2000.560669,930.667358 1956.744385,931.159851 1912.542358,919.426636 
z" data-index="3" style="opacity: 1; visibility: visible; fill: rgb(255, 255, 255); stroke: rgb(255, 255, 255);"></path>
<path fill="#FEFEFE" opacity="1.000000" stroke="none" d="
M74.958023,750.000000 
	C74.958023,682.884094 74.958023,616.268188 74.958023,549.416321 
	C165.121445,549.416321 254.865341,549.416321 344.975159,549.416321 
	C344.975159,572.209961 344.975159,594.934143 344.975159,617.994202 
	C285.564850,617.994202 226.031754,617.994202 166.338074,617.994202 
	C166.338074,640.691162 166.338074,663.101074 166.338074,686.058716 
	C222.002365,686.058716 277.389557,686.058716 333.045959,686.058716 
	C333.045959,710.375732 333.045959,734.145630 333.045959,758.387695 
	C277.746399,758.387695 222.511734,758.387695 166.671570,758.387695 
	C166.671570,786.733887 166.671570,814.616211 166.671570,843.053711 
	C230.925949,843.053711 295.479614,843.053711 360.321625,843.053711 
	C360.321625,866.524841 360.321625,889.446655 360.321625,912.685547 
	C265.414032,912.685547 170.524826,912.685547 74.958023,912.685547 
	C74.958023,858.654785 74.958023,804.577393 74.958023,750.000000 
z" data-index="4" style="opacity: 1; visibility: visible; fill: rgb(255, 255, 255); stroke: rgb(255, 255, 255);"></path>
<path fill="#FEFEFE" opacity="1.000000" stroke="none" d="
M1755.000244,549.191223 
	C1762.813232,549.191223 1770.126221,549.191223 1777.819336,549.191223 
	C1777.819336,572.157654 1777.819336,594.881531 1777.819336,618.129395 
	C1719.454834,618.129395 1660.905640,618.129395 1601.984863,618.129395 
	C1601.984863,640.889526 1601.984863,663.134277 1601.984863,685.817505 
	C1656.302734,685.817505 1710.874023,685.817505 1765.770508,685.817505 
	C1765.770508,710.129944 1765.770508,734.007202 1765.770508,758.256470 
	C1711.270630,758.256470 1656.848999,758.256470 1602.020020,758.256470 
	C1602.020020,786.518433 1602.020020,814.416626 1602.020020,842.789734 
	C1665.791870,842.789734 1729.857910,842.789734 1794.172363,842.789734 
	C1794.172363,866.363464 1794.172363,889.463501 1794.172363,912.724365 
	C1699.386475,912.724365 1604.805176,912.724365 1510.012939,912.724365 
	C1510.012939,791.582275 1510.012939,670.660522 1510.012939,549.191223 
	C1591.612915,549.191223 1673.056519,549.191223 1755.000244,549.191223 
z" data-index="5" style="opacity: 1; visibility: visible; fill: rgb(255, 255, 255); stroke: rgb(255, 255, 255);"></path>
<path fill="#FEFEFE" opacity="1.000000" stroke="none" d="
M477.345947,647.666016 
	C453.887024,614.934937 430.650818,582.485901 406.800598,549.179321 
	C408.770020,549.179321 409.822296,549.179321 410.874573,549.179321 
	C444.873444,549.179321 478.872559,549.232361 512.870850,549.095093 
	C516.172119,549.081787 517.856323,550.193359 519.531616,552.938477 
	C540.150085,586.723938 560.906616,620.424988 581.631592,654.145447 
	C582.409546,655.411316 583.228638,656.651855 584.310242,658.345215 
	C585.340942,656.774475 586.229797,655.519409 587.018127,654.204102 
	C607.190002,620.544556 627.359985,586.883850 647.495544,553.202637 
	C648.889160,550.871460 650.000732,549.055603 653.450012,549.072876 
	C688.278076,549.247620 723.107422,549.179382 759.371338,549.179382 
	C718.588440,605.903625 678.455078,661.724548 638.058899,717.910950 
	C684.624268,782.600769 731.253662,847.379578 778.435059,912.925232 
	C776.009216,912.925232 774.431396,912.925232 772.853638,912.925232 
	C739.188049,912.925232 705.522095,912.844482 671.857483,913.025452 
	C667.555420,913.048523 665.123779,911.903564 662.806580,908.071594 
	C637.679688,866.518799 612.315552,825.109436 587.010620,783.664307 
	C586.236084,782.395691 585.403564,781.162415 584.397705,779.601746 
	C583.226868,781.289429 582.160034,782.749207 581.173218,784.261108 
	C554.074890,825.777100 526.949768,867.275757 499.966064,908.866089 
	C498.017059,911.870117 496.044464,913.031006 492.422363,913.015259 
	C457.769348,912.864746 423.115417,912.925232 387.430664,912.925232 
	C389.086792,910.576050 390.344879,908.758850 391.635651,906.965210 
	C435.973755,845.353882 480.286041,783.723938 524.736816,722.194092 
	C527.086670,718.941345 527.179138,716.937744 524.777100,713.641846 
	C508.895355,691.849976 493.274445,669.868103 477.345947,647.666016 
z" data-index="6" style="opacity: 1; visibility: visible; fill: rgb(255, 255, 255); stroke: rgb(255, 255, 255);"></path>
<path fill="#FEFEFE" opacity="1.000000" stroke="none" d="
M831.000183,549.246338 
	C877.483398,549.273865 923.468384,549.061646 969.448914,549.423889 
	C994.791748,549.623535 1019.971497,551.764160 1044.295776,559.850586 
	C1085.179443,573.441956 1106.992310,602.292542 1111.892700,644.467957 
	C1114.788452,669.390747 1113.402588,694.077209 1104.721802,717.859436 
	C1092.517334,751.295654 1068.056030,772.132263 1035.209839,783.934814 
	C1009.328369,793.234619 982.385437,795.681946 955.131104,795.805420 
	C936.831238,795.888306 918.530701,795.821228 899.759033,795.821228 
	C899.759033,834.837341 899.759033,873.555298 899.759033,912.598145 
	C868.761780,912.598145 838.236511,912.598145 807.471802,912.598145 
	C807.471802,791.568604 807.471802,670.695618 807.471802,549.246277 
	C815.280762,549.246277 822.890442,549.246277 831.000183,549.246338 
M891.848755,718.464966 
	C891.848755,721.729126 891.848755,724.993225 891.848755,727.842773 
	C892.639648,728.313477 892.783142,728.473938 892.926025,728.473328 
	C921.418213,728.358398 949.934570,728.901855 978.394043,727.873108 
	C997.691772,727.175537 1011.488953,716.735413 1018.720032,698.555115 
	C1023.997009,685.287842 1025.238159,671.303833 1023.673523,657.285217 
	C1021.521057,637.999695 1010.131104,625.388184 991.123901,620.901184 
	C984.225647,619.272766 976.980652,618.528625 969.881165,618.443542 
	C945.551697,618.151978 921.216614,618.331726 896.883667,618.331726 
	C895.290649,618.331726 893.697693,618.331726 891.848755,618.331726 
	C891.848755,651.830078 891.848755,684.651855 891.848755,718.464966 
z" data-index="7" style="opacity: 1; visibility: visible; fill: rgb(255, 255, 255); stroke: rgb(255, 255, 255);"></path>

<path fill="#020202" opacity="1.000000" stroke="none" d="
M891.848755,717.969299 
	C891.848755,684.651855 891.848755,651.830078 891.848755,618.331726 
	C893.697693,618.331726 895.290649,618.331726 896.883667,618.331726 
	C921.216614,618.331726 945.551697,618.151978 969.881165,618.443542 
	C976.980652,618.528625 984.225647,619.272766 991.123901,620.901184 
	C1010.131104,625.388184 1021.521057,637.999695 1023.673523,657.285217 
	C1025.238159,671.303833 1023.997009,685.287842 1018.720032,698.555115 
	C1011.488953,716.735413 997.691772,727.175537 978.394043,727.873108 
	C949.934570,728.901855 921.418213,728.358398 892.926025,728.473328 
	C892.783142,728.473938 892.639648,728.313477 891.848755,727.842773 
	C891.848755,724.993225 891.848755,721.729126 891.848755,717.969299 
z" data-index="9" style="opacity: 1; visibility: hidden;"></path>
</svg>