<svg version="1.1" id="Layer_1" xmlns="http://www.w3.org/2000/svg" xmlns:xlink="http://www.w3.org/1999/xlink" x="0px" y="0px" width="100%" viewBox="0 0 300 181" enable-background="new 0 0 300 181" xml:space="preserve">

<path fill="#47704C" opacity="1.000000" stroke="none" d="
M301.000000,4.625000 
	C281.363983,5.001058 261.726440,5.135603 242.092850,4.917670 
	C236.570007,4.856367 232.715118,6.436589 229.637512,11.267536 
	C224.099136,19.961164 217.942245,28.258852 212.177155,36.811867 
	C211.249573,38.188034 211.012634,40.029736 210.456421,41.656227 
	C212.165024,42.098484 213.870911,42.912415 215.582657,42.924892 
	C230.891312,43.036465 246.201935,43.105145 261.509888,42.963554 
	C266.631622,42.916176 269.667480,45.181999 271.166107,49.866718 
	C272.573730,54.267101 271.075745,56.645439 266.379181,56.868744 
	C261.231384,57.113503 256.065277,56.972038 250.907166,57.002842 
	C242.635712,57.052246 242.020874,57.615856 242.010742,65.723160 
	C241.985153,86.191193 242.008118,106.659286 241.985306,127.127327 
	C241.983093,129.118469 242.359070,131.392181 241.538742,133.020462 
	C240.727768,134.630173 238.785233,136.224091 237.043610,136.669418 
	C234.897522,137.218185 232.177048,136.982864 232.500763,133.255493 
	C234.537018,132.865540 236.108078,132.746033 238.272614,132.581406 
	C238.272614,105.836563 238.272614,79.618690 238.272614,52.787663 
	C248.485428,52.787663 258.064026,52.787663 267.996246,52.787663 
	C267.842255,50.569313 267.733459,49.001976 267.620636,47.376282 
	C245.593628,47.376282 224.026413,47.376282 202.070572,47.376282 
	C202.163269,49.339981 202.237335,50.909298 202.336334,53.006794 
	C211.191788,53.006794 219.655640,53.099987 228.115524,52.957443 
	C231.174911,52.905895 232.524780,53.872025 231.833344,57.000000 
	C221.747589,56.673191 211.662933,56.241539 201.574844,56.134121 
	C200.084579,56.118256 198.044830,57.259140 197.163483,58.504650 
	C190.268066,68.249138 183.306152,77.974159 177.084625,88.145508 
	C175.785110,90.270027 177.470718,94.220467 177.724182,97.840210 
	C177.667664,98.350937 177.335312,98.701881 177.082458,98.478271 
	C175.562393,96.532196 174.499786,94.598381 172.984924,93.131668 
	C169.920364,90.164528 170.855667,87.642563 173.057907,84.685173 
	C177.789398,78.331299 182.347870,71.845154 186.859924,65.331932 
	C200.201859,46.072754 213.496353,26.780668 226.770584,7.474760 
	C227.582092,6.294496 228.056610,4.882507 228.687927,3.578333 
	C228.232437,3.292529 227.776947,3.006725 227.321472,2.720922 
	C206.904480,29.453777 186.487473,56.186634 165.701599,83.402489 
	C164.442566,81.628319 163.428955,80.199997 162.765930,78.719193 
	C165.576050,76.888603 168.621078,75.563744 170.403442,73.261383 
	C186.096802,52.989784 201.590195,32.562943 217.052902,12.114089 
	C218.266327,10.509395 218.802246,8.392405 219.653046,6.513508 
	C217.641083,6.011712 215.631683,5.086279 213.616760,5.074069 
	C194.800415,4.960047 175.983124,5.000389 157.166107,5.000453 
	C109.207687,5.000618 61.249264,4.992783 13.290854,5.015225 
	C5.759419,5.018750 4.809207,5.777339 5.067571,13.348891 
	C5.459269,24.827909 2.911093,36.612671 7.924627,47.434586 
	C5.711285,47.101597 3.842812,46.967464 1.815492,46.690338 
	C1.442396,46.359333 1.223515,46.176888 1.000000,46.000000 
	C1.000000,31.645771 1.000000,17.291544 1.170131,2.305476 
	C1.564855,1.453676 1.784768,1.229130 2.000000,1.000000 
	C101.020897,1.000000 200.041794,1.000000 299.694519,1.170133 
	C300.546295,1.564854 300.770844,1.784766 301.000000,2.000000 
	C301.000000,2.750000 301.000000,3.500000 301.000000,4.625000 
z" data-index="1" style="opacity: 1; visibility: hidden;"></path>

<path fill="#000000" opacity="1.000000" stroke="none" d="
M25.693001,84.326363 
	C20.001419,75.741287 14.309838,67.156204 8.618257,58.571125 
	C8.146001,58.746666 7.673745,58.922203 7.201489,59.097744 
	C7.201489,83.440063 7.201489,107.782387 7.201489,132.594116 
	C5.033532,132.758591 3.449996,132.878738 1.433231,132.999435 
	C1.000000,104.645775 1.000000,76.291542 1.246399,47.443447 
	C1.492799,46.949577 1.974339,46.833336 1.974339,46.833336 
	C3.842812,46.967464 5.711285,47.101597 7.933109,47.465073 
	C8.286461,47.694420 8.342335,47.664478 8.529028,47.954559 
	C15.444011,58.403854 22.120760,68.597702 28.915972,78.711952 
	C34.967846,87.719795 41.150852,96.639549 47.260651,105.626259 
	C47.245316,105.654343 47.306461,105.673050 47.501854,105.959625 
	C50.824200,111.236862 53.817139,116.317772 57.105427,121.199760 
	C64.414413,132.051102 71.871315,142.802826 79.267914,153.595169 
	C79.267914,153.595169 79.284668,153.731049 79.350037,153.751373 
	C82.285652,158.605545 85.155907,163.439377 88.026154,168.273193 
	C87.751816,168.489700 87.477478,168.706207 87.203133,168.922714 
	C86.536621,168.535736 85.870102,168.148758 84.946503,167.535904 
	C84.689423,167.310028 84.662422,167.355423 84.490288,167.086456 
	C83.451736,165.678192 82.585327,164.538879 81.718979,163.370392 
	C81.719040,163.341217 81.662422,163.355423 81.490288,163.086456 
	C80.451744,161.678192 79.585327,160.538879 78.718979,159.370392 
	C78.719040,159.341217 78.662422,159.355423 78.490288,159.086456 
	C77.451744,157.678192 76.585335,156.538879 75.718979,155.370392 
	C75.719040,155.341217 75.662422,155.355423 75.490288,155.086456 
	C74.451736,153.678192 73.585327,152.538879 72.718979,151.370392 
	C72.719040,151.341217 72.662422,151.355423 72.490288,151.086456 
	C71.451744,149.678192 70.585327,148.538879 69.718979,147.370392 
	C69.719040,147.341217 69.662422,147.355423 69.490288,147.086456 
	C68.451744,145.678192 67.585327,144.538879 66.718979,143.370392 
	C66.719040,143.341217 66.662422,143.355423 66.490288,143.086456 
	C65.451736,141.678192 64.585320,140.538879 63.718971,139.370392 
	C63.719040,139.341217 63.662430,139.355423 63.490295,139.086456 
	C62.451740,137.678192 61.585323,136.538879 60.721611,135.366348 
	C60.724308,135.333115 60.657658,135.335510 60.470989,135.045471 
	C57.430885,130.637558 54.577446,126.519691 51.725082,122.367577 
	C51.726151,122.333336 51.657669,122.335526 51.470978,122.045441 
	C47.097530,115.637520 42.910774,109.519669 38.725082,103.367584 
	C38.726151,103.333344 38.657669,103.335526 38.470978,103.045441 
	C34.097530,96.637520 29.910774,90.519669 25.739202,84.373512 
	C25.754385,84.345200 25.693001,84.326363 25.693001,84.326363 
z" data-index="3" style="opacity: 1; visibility: visible; fill: rgb(255, 255, 255); stroke: rgb(255, 255, 255);"></path>
<path fill="#000000" opacity="1.000000" stroke="none" d="
M278.833344,118.999367 
	C278.900055,115.650879 278.966736,112.302391 279.458374,108.486092 
	C281.311066,108.687424 282.738861,109.356567 284.110168,110.447235 
	C284.091339,112.565529 284.128998,114.262291 284.110992,116.393143 
	C284.149231,118.340500 284.243134,119.853775 284.353119,121.626236 
	C285.903412,121.289230 286.951965,121.061279 288.347992,120.928940 
	C291.203491,122.801903 293.569275,126.037521 297.274292,121.038300 
	C293.997894,119.917679 291.017212,118.898209 287.910156,117.610222 
	C287.230865,116.550026 286.677887,115.758347 286.083069,114.575302 
	C286.066589,113.135948 286.091919,112.087952 286.380096,110.909676 
	C287.806396,109.797371 288.969879,108.815353 290.523193,107.689758 
	C295.329559,105.618561 297.972351,108.871231 301.000000,111.000000 
	C301.000000,111.750000 301.000000,112.500000 300.615723,113.622086 
	C298.385010,113.124634 296.604950,111.999763 294.663666,111.495171 
	C293.717651,111.249260 292.470734,112.160881 291.360016,112.548538 
	C291.999847,113.335609 292.481995,114.450089 293.309052,114.848434 
	C295.800659,116.048508 298.426514,116.969917 301.000000,118.000000 
	C301.000000,120.041679 301.000000,122.083351 300.663422,124.693130 
	C297.418518,126.089577 294.269226,128.014557 291.668549,127.442993 
	C288.978577,126.851791 286.821259,123.836876 284.397980,121.855217 
	C278.212585,129.193863 278.212585,129.193863 271.944824,125.629288 
	C271.663177,124.081543 271.550262,122.861252 271.437378,121.640961 
	C273.664062,122.143517 275.890778,122.646072 278.833344,123.310204 
	C278.833344,121.759254 278.833344,120.379311 278.833344,118.999367 
z" data-index="4" style="opacity: 1; visibility: visible; fill: rgb(255, 255, 255); stroke: rgb(255, 255, 255);"></path>

<path fill="#47704C" opacity="1.000000" stroke="none" d="
M301.000000,110.583336 
	C297.972351,108.871231 295.329559,105.618561 290.506195,107.210602 
	C290.066254,105.916664 290.033112,104.958336 290.000000,104.000000 
	C293.437073,104.597725 296.874176,105.195450 300.655640,105.896591 
	C301.000000,107.388893 301.000000,108.777779 301.000000,110.583336 
z" data-index="6" style="opacity: 1; visibility: hidden;"></path>

<path fill="#47704C" opacity="1.000000" stroke="none" d="
M1.815492,46.690338 
	C1.974339,46.833336 1.492799,46.949577 1.246399,46.974789 
	C1.000000,47.000000 1.000000,46.500000 1.000000,46.250000 
	C1.223515,46.176888 1.442396,46.359333 1.815492,46.690338 
z" data-index="8"></path>
<path fill="#47704C" opacity="1.000000" stroke="none" d="
M301.000000,1.500000 
	C300.770844,1.784766 300.546295,1.564854 300.163177,1.170133 
	C300.333344,1.000000 300.666656,1.000000 301.000000,1.500000 
z" data-index="9"></path>
<path fill="#47704C" opacity="1.000000" stroke="none" d="
M1.500000,1.000000 
	C1.784768,1.229130 1.564855,1.453676 1.170131,1.836819 
	C1.000000,1.666667 1.000000,1.333333 1.500000,1.000000 
z" data-index="10"></path>
<path fill="#000000" opacity="1.000000" stroke="none" d="
M231.889954,57.465691 
	C232.524780,53.872025 231.174911,52.905895 228.115524,52.957443 
	C219.655640,53.099987 211.191788,53.006794 202.336334,53.006794 
	C202.237335,50.909298 202.163269,49.339981 202.070572,47.376282 
	C224.026413,47.376282 245.593628,47.376282 267.620636,47.376282 
	C267.733459,49.001976 267.842255,50.569313 267.996246,52.787663 
	C258.064026,52.787663 248.485428,52.787663 238.272614,52.787663 
	C238.272614,79.618690 238.272614,105.836563 238.272614,132.581406 
	C236.108078,132.746033 234.537018,132.865540 232.539886,132.971008 
	C232.058075,107.948448 232.002319,82.939919 231.889954,57.465691 
z" data-index="11" style="opacity: 1; visibility: visible; fill: rgb(255, 255, 255); stroke: rgb(255, 255, 255);"></path>

<path fill="#47704C" opacity="1.000000" stroke="none" d="
M271.944824,125.629288 
	C269.669586,126.622215 267.225616,127.287697 264.390808,127.976593 
	C262.247437,120.388786 266.233521,116.474861 274.352905,117.882706 
	C275.632385,118.104561 276.873810,118.545921 278.483093,118.942581 
	C278.833344,120.379311 278.833344,121.759254 278.833344,123.310204 
	C275.890778,122.646072 273.664062,122.143517 271.437378,121.640961 
	C271.550262,122.861252 271.663177,124.081543 271.944824,125.629288 
z" data-index="13" style="opacity: 1; visibility: hidden;"></path>

<path fill="#47704C" opacity="1.000000" stroke="none" d="
M289.745605,104.178818 
	C290.033112,104.958336 290.066254,105.916664 290.116394,107.354164 
	C288.969879,108.815353 287.806396,109.797371 286.135498,110.784332 
	C285.140930,110.534752 284.653778,110.280228 284.166656,110.025711 
	C282.738861,109.356567 281.311066,108.687424 279.493927,108.034805 
	C278.470734,104.418053 280.384918,104.416862 283.195190,104.816063 
	C285.231079,105.105270 287.388184,104.541199 289.745605,104.178818 
z" data-index="15" style="opacity: 1; visibility: hidden;"></path>

<path fill="#47704C" opacity="1.000000" stroke="none" d="
M185.166168,122.824539 
	C183.405472,120.886780 181.810959,118.773552 180.274384,116.154694 
	C180.332336,115.649063 180.664688,115.298119 180.914856,115.518982 
	C182.664902,117.925934 184.164795,120.112030 185.664688,122.298119 
	C185.664688,122.298119 185.332336,122.649063 185.166168,122.824539 
z" data-index="17" style="opacity: 1; visibility: hidden;"></path>

<path fill="#47704C" opacity="1.000000" stroke="none" d="
M190.833832,116.175476 
	C192.594513,118.113235 194.189026,120.226456 195.725586,122.845306 
	C195.667648,123.350937 195.335297,123.701866 195.085144,123.481003 
	C193.335114,121.074059 191.835220,118.887970 190.335312,116.701874 
	C190.335312,116.701881 190.667664,116.350937 190.833832,116.175476 
z" data-index="19" style="opacity: 1; visibility: hidden;"></path>

<path fill="#47704C" opacity="1.000000" stroke="none" d="
M177.833832,98.175468 
	C179.594513,100.113228 181.189041,102.226448 182.725601,104.845306 
	C182.667648,105.350937 182.335297,105.701866 182.085144,105.481003 
	C180.335114,103.074059 178.835220,100.887970 177.335327,98.701874 
	C177.335312,98.701881 177.667664,98.350937 177.833832,98.175468 
z" data-index="21" style="opacity: 1; visibility: hidden;"></path>

<path fill="#47704C" opacity="1.000000" stroke="none" d="
M182.833832,105.175468 
	C183.925232,106.130371 184.850449,107.260735 185.887848,108.695557 
	C186.000000,109.000000 185.667664,109.350937 185.261993,109.317047 
	C184.015991,108.089394 183.175644,106.895630 182.335297,105.701866 
	C182.335297,105.701866 182.667648,105.350937 182.833832,105.175468 
z" data-index="23" style="opacity: 1; visibility: hidden;"></path>

<path fill="#47704C" opacity="1.000000" stroke="none" d="
M71.113937,132.957062 
	C69.252716,131.897797 66.784904,131.279816 65.636871,129.701721 
	C61.037579,123.379539 56.921886,116.707947 52.456512,110.284317 
	C51.276268,108.586494 49.484821,107.313538 47.640244,105.759277 
	C47.306461,105.673050 47.245316,105.654343 47.261391,105.236221 
	C46.489643,102.839233 46.013161,100.655182 44.865372,98.913536 
	C34.506336,83.194809 24.083202,67.517273 13.513965,51.939545 
	C12.308476,50.162804 10.090722,49.072868 8.342335,47.664478 
	C8.342335,47.664478 8.286461,47.694420 8.277979,47.663929 
	C2.911093,36.612671 5.459269,24.827909 5.067571,13.348891 
	C4.809207,5.777339 5.759419,5.018750 13.290854,5.015225 
	C61.249264,4.992783 109.207687,5.000618 157.166107,5.000453 
	C175.983124,5.000389 194.800415,4.960047 213.616760,5.074069 
	C215.631683,5.086279 217.641083,6.011712 219.653046,6.513508 
	C218.802246,8.392405 218.266327,10.509395 217.052902,12.114089 
	C201.590195,32.562943 186.096802,52.989784 170.403442,73.261383 
	C168.621078,75.563744 165.576050,76.888603 162.700531,78.698860 
	C162.284592,78.731003 162.267731,78.595085 162.267853,78.211594 
	C162.071548,74.619743 160.761398,72.301903 157.306046,71.669708 
	C157.268539,71.670097 157.267731,71.595085 157.267853,71.211594 
	C157.071548,67.619743 155.761398,65.301903 152.306046,64.669708 
	C152.268539,64.670097 152.267731,64.595085 152.267853,64.211594 
	C152.071533,60.619759 150.761414,58.301899 147.306183,57.669701 
	C147.268799,57.670086 147.268005,57.595310 147.267593,57.209976 
	C147.074951,53.293259 145.333908,50.990829 141.634308,49.922195 
	C140.907745,49.239361 140.432846,48.677139 139.885620,47.756386 
	C138.218262,46.079834 136.792206,44.020992 134.990280,43.609978 
	C131.962036,42.919235 128.694946,43.211632 125.528038,43.203365 
	C108.620636,43.159267 91.713028,43.115219 74.805817,43.170174 
	C72.510124,43.177631 70.381378,43.897354 71.069046,47.515579 
	C71.060310,76.305580 71.087128,104.631317 71.113937,132.957062 
z" data-index="25" style="opacity: 1; visibility: hidden;"></path>
<path fill="#000000" opacity="1.000000" stroke="none" d="
M71.575150,132.971664 
	C71.087128,104.631317 71.060310,76.305580 71.530731,47.498127 
	C90.798683,47.016418 109.569405,47.016418 128.507812,47.016418 
	C128.507812,49.280445 128.507812,50.946815 128.507812,53.244957 
	C111.526375,53.244957 94.976250,53.244957 78.430161,53.244957 
	C78.430161,64.440575 78.430161,74.988266 78.430161,86.140594 
	C94.418953,86.140594 109.985664,86.140594 125.940674,86.140594 
	C125.836945,88.341095 125.763031,89.909164 125.660362,92.087067 
	C109.715820,92.087067 94.157021,92.087067 78.344742,92.087067 
	C78.344742,103.932137 78.344742,115.145218 78.344742,126.738777 
	C80.453232,126.835442 82.239418,126.985542 84.025833,126.988335 
	C97.177582,127.008881 110.329498,126.971306 123.481003,127.031639 
	C125.433151,127.040588 127.383385,127.467545 129.516937,127.979965 
	C130.138168,129.140564 130.576950,130.022308 131.266769,131.408508 
	C140.898209,118.002693 149.916855,105.076675 159.401672,92.502312 
	C161.867706,89.233025 161.420624,87.443939 158.473999,85.019264 
	C156.745117,82.594261 155.202881,80.444267 153.473999,78.019257 
	C151.745071,75.594208 150.202789,73.444176 148.483948,71.038002 
	C147.452759,69.648354 146.598145,68.514839 145.548279,67.101616 
	C143.816483,64.674973 142.279922,62.528042 140.544708,60.095436 
	C137.823654,55.857639 135.301254,51.905518 132.778870,47.953400 
	C133.060760,47.570999 133.342667,47.188602 133.624573,46.806202 
	C135.735687,47.242443 137.846817,47.678680 139.957932,48.114922 
	C140.432846,48.677139 140.907745,49.239361 141.791504,50.226871 
	C143.889557,52.966549 145.578781,55.280930 147.268005,57.595310 
	C147.268005,57.595310 147.268799,57.670086 147.490723,57.953865 
	C149.231003,60.356792 150.749359,62.475937 152.267731,64.595085 
	C152.267731,64.595085 152.268539,64.670097 152.490570,64.953857 
	C154.230988,67.356773 155.749359,69.475929 157.267731,71.595085 
	C157.267731,71.595085 157.268539,71.670097 157.490570,71.953857 
	C159.230988,74.356773 160.749359,76.475929 162.267731,78.595085 
	C162.267731,78.595085 162.284592,78.731003 162.349976,78.751343 
	C163.428955,80.199997 164.442566,81.628319 165.701599,83.402489 
	C186.487473,56.186634 206.904480,29.453777 227.321472,2.720922 
	C227.776947,3.006725 228.232437,3.292529 228.687927,3.578333 
	C228.056610,4.882507 227.582092,6.294496 226.770584,7.474760 
	C213.496353,26.780668 200.201859,46.072754 186.859924,65.331932 
	C182.347870,71.845154 177.789398,78.331299 173.057907,84.685173 
	C170.855667,87.642563 169.920364,90.164528 172.984924,93.131668 
	C174.499786,94.598381 175.562393,96.532196 177.082474,98.478271 
	C178.835220,100.887970 180.335114,103.074059 182.085144,105.481003 
	C183.175644,106.895630 184.015991,108.089394 185.095825,109.492523 
	C186.835205,111.887978 188.335098,114.074066 190.085144,116.481018 
	C191.835220,118.887970 193.335114,121.074059 195.085144,123.481003 
	C196.175644,124.895630 197.015991,126.089401 198.095825,127.492523 
	C199.134628,129.112549 199.933929,130.523224 200.914627,132.253998 
	C196.961594,133.604141 193.608292,133.736389 190.933319,129.538086 
	C189.164795,127.112030 187.664902,124.925934 185.914856,122.518982 
	C184.164795,120.112030 182.664902,117.925934 180.914856,115.518982 
	C179.164780,113.112030 177.664886,110.925941 175.914856,108.518997 
	C174.824356,107.104370 173.984009,105.910606 172.904175,104.507477 
	C170.566971,101.211601 168.469238,98.125084 165.918152,94.371498 
	C159.636292,103.039101 153.780533,111.106834 147.942978,119.187714 
	C147.172379,120.254440 146.525375,121.409805 145.769028,122.487564 
	C138.390076,133.002213 138.386917,133.001709 125.398605,132.999588 
	C107.611191,132.996674 89.823769,132.990845 71.575150,132.971664 
z" data-index="26" style="opacity: 1; visibility: visible; fill: rgb(255, 255, 255); stroke: rgb(255, 255, 255);"></path>

<path fill="#47704C" opacity="1.000000" stroke="none" d="
M8.529028,47.954559 
	C10.090722,49.072868 12.308476,50.162804 13.513965,51.939545 
	C24.083202,67.517273 34.506336,83.194809 44.865372,98.913536 
	C46.013161,100.655182 46.489643,102.839233 47.276722,105.208145 
	C41.150852,96.639549 34.967846,87.719795 28.915972,78.711952 
	C22.120760,68.597702 15.444011,58.403854 8.529028,47.954559 
z" data-index="28" style="opacity: 1; visibility: hidden;"></path>

<path fill="#47704C" opacity="1.000000" stroke="none" d="
M51.470978,122.045441 
	C44.582840,118.253136 41.458004,111.356232 38.723278,103.791855 
	C42.910774,109.519669 47.097530,115.637520 51.470978,122.045441 
z" data-index="30" style="opacity: 1; visibility: hidden;"></path>

<path fill="#47704C" opacity="1.000000" stroke="none" d="
M81.490288,163.086456 
	C80.689903,162.275711 79.717392,161.195984 78.731895,159.757935 
	C79.585327,160.538879 80.451744,161.678192 81.490288,163.086456 
z" data-index="32"></path>
<path fill="#47704C" opacity="1.000000" stroke="none" d="
M66.490288,143.086456 
	C65.689903,142.275711 64.717384,141.195984 63.731888,139.757935 
	C64.585320,140.538879 65.451736,141.678192 66.490288,143.086456 
z" data-index="33"></path>
<path fill="#47704C" opacity="1.000000" stroke="none" d="
M69.490288,147.086456 
	C68.689911,146.275696 67.717392,145.195984 66.731895,143.757935 
	C67.585327,144.538879 68.451744,145.678192 69.490288,147.086456 
z" data-index="34"></path>
<path fill="#47704C" opacity="1.000000" stroke="none" d="
M72.490288,151.086456 
	C71.689911,150.275696 70.717392,149.195984 69.731895,147.757935 
	C70.585327,148.538879 71.451744,149.678192 72.490288,151.086456 
z" data-index="35"></path>
<path fill="#47704C" opacity="1.000000" stroke="none" d="
M75.490288,155.086456 
	C74.689903,154.275711 73.717392,153.195984 72.731895,151.757935 
	C73.585327,152.538879 74.451736,153.678192 75.490288,155.086456 
z" data-index="36"></path>
<path fill="#47704C" opacity="1.000000" stroke="none" d="
M84.490288,167.086456 
	C83.689903,166.275711 82.717392,165.195984 81.731895,163.757935 
	C82.585327,164.538879 83.451736,165.678192 84.490288,167.086456 
z" data-index="37"></path>
<path fill="#47704C" opacity="1.000000" stroke="none" d="
M78.490288,159.086456 
	C77.689903,158.275711 76.717392,157.195984 75.731895,155.757935 
	C76.585335,156.538879 77.451744,157.678192 78.490288,159.086456 
z" data-index="38"></path>
<path fill="#47704C" opacity="1.000000" stroke="none" d="
M63.490295,139.086456 
	C62.689907,138.275711 61.717384,137.195984 60.731888,135.757935 
	C61.585323,136.538879 62.451740,137.678192 63.490295,139.086456 
z" data-index="39"></path>

<path fill="#47704C" opacity="1.000000" stroke="none" d="
M287.910156,117.610222 
	C288.027252,118.617378 288.017975,119.356033 288.004639,120.464005 
	C286.951965,121.061279 285.903412,121.289230 284.353119,121.626236 
	C284.243134,119.853775 284.149231,118.340500 284.355072,116.267746 
	C285.144867,115.461075 285.634888,115.213875 286.124939,114.966675 
	C286.677887,115.758347 287.230865,116.550026 287.910156,117.610222 
z" data-index="41" style="opacity: 1; visibility: hidden;"></path>

<path fill="#47704C" opacity="1.000000" stroke="none" d="
M129.334503,127.701111 
	C127.383385,127.467545 125.433151,127.040588 123.481003,127.031639 
	C110.329498,126.971306 97.177582,127.008881 84.025833,126.988335 
	C82.239418,126.985542 80.453232,126.835442 78.344742,126.738777 
	C78.344742,115.145218 78.344742,103.932137 78.344742,92.087067 
	C94.157021,92.087067 109.715820,92.087067 125.660362,92.087067 
	C125.763031,89.909164 125.836945,88.341095 125.940674,86.140594 
	C109.985664,86.140594 94.418953,86.140594 78.430161,86.140594 
	C78.430161,74.988266 78.430161,64.440575 78.430161,53.244957 
	C94.976250,53.244957 111.526375,53.244957 128.507812,53.244957 
	C128.507812,50.946815 128.507812,49.280445 128.507812,47.016418 
	C109.569405,47.016418 90.798683,47.016418 71.566277,47.033875 
	C70.381378,43.897354 72.510124,43.177631 74.805817,43.170174 
	C91.713028,43.115219 108.620636,43.159267 125.528038,43.203365 
	C128.694946,43.211632 131.962036,42.919235 134.990280,43.609978 
	C136.792206,44.020992 138.218262,46.079834 139.885620,47.756386 
	C137.846817,47.678680 135.735687,47.242443 133.624573,46.806202 
	C133.342667,47.188602 133.060760,47.570999 132.778870,47.953400 
	C135.301254,51.905518 137.823654,55.857639 140.358856,60.250145 
	C140.371643,60.690529 140.000000,61.000000 139.722656,60.823708 
	C136.467178,56.550121 132.654190,55.422466 127.749359,56.829258 
	C125.742546,57.404846 123.446877,56.993034 121.282562,56.996517 
	C110.292694,57.014194 99.302322,57.083618 88.313148,57.000412 
	C83.889778,56.966919 81.872375,58.922401 82.009628,63.333096 
	C82.107979,66.493431 81.993538,69.659904 82.005226,72.823517 
	C82.037094,81.447273 82.532578,81.962372 90.963402,81.993996 
	C100.953949,82.031464 110.946716,81.926125 120.934296,82.111099 
	C125.818489,82.201546 129.756119,86.444885 129.600815,91.241890 
	C129.416107,96.947205 124.884422,95.896866 121.443008,95.943748 
	C110.954483,96.086624 100.462677,95.966934 89.972496,96.018456 
	C82.825760,96.053543 82.075745,96.857994 82.011543,104.169312 
	C81.977905,107.998817 81.959923,111.829727 82.023125,115.658539 
	C82.127396,121.974861 83.016029,122.924026 89.301979,122.968689 
	C100.457924,123.047958 111.614693,123.013924 122.771118,123.021744 
	C125.914474,123.023949 128.838486,123.405586 129.833618,127.175262 
	C129.667236,127.350533 129.334503,127.701103 129.334503,127.701111 
z" data-index="43" style="opacity: 1; visibility: hidden;"></path>

<path fill="#47704C" opacity="1.000000" stroke="none" d="
M162.267853,78.211594 
	C160.749359,76.475929 159.230988,74.356773 157.528076,71.953461 
	C160.761398,72.301903 162.071548,74.619743 162.267853,78.211594 
z" data-index="45" style="opacity: 1; visibility: hidden;"></path>

<path fill="#47704C" opacity="1.000000" stroke="none" d="
M152.267853,64.211594 
	C150.749359,62.475937 149.231003,60.356792 147.528107,57.953484 
	C150.761414,58.301899 152.071533,60.619759 152.267853,64.211594 
z" data-index="47" style="opacity: 1; visibility: hidden;"></path>

<path fill="#47704C" opacity="1.000000" stroke="none" d="
M153.660645,78.294273 
	C155.202881,80.444267 156.745117,82.594261 158.473999,85.019264 
	C158.660645,85.294273 158.330353,85.647163 157.886292,85.645432 
	C155.961487,83.429131 154.480743,81.214569 153.165176,78.823586 
	C153.330353,78.647163 153.660645,78.294273 153.660645,78.294273 
z" data-index="49" style="opacity: 1; visibility: hidden;"></path>

<path fill="#47704C" opacity="1.000000" stroke="none" d="
M140.557495,60.535820 
	C142.279922,62.528042 143.816483,64.674973 145.362396,67.256271 
	C145.371750,67.690636 145.000000,68.000000 144.721115,67.821838 
	C142.961487,65.429123 141.480743,63.214558 140.000000,61.000000 
	C140.000000,61.000000 140.371643,60.690529 140.557495,60.535820 
z" data-index="51" style="opacity: 1; visibility: hidden;"></path>

<path fill="#47704C" opacity="1.000000" stroke="none" d="
M144.721115,67.821838 
	C145.825623,69.212639 146.651245,70.425285 147.738434,71.818970 
	C149.480743,74.214561 150.961487,76.429123 152.721115,78.821846 
	C154.480743,81.214569 155.961487,83.429131 157.721115,85.821846 
	C157.674210,87.607964 157.824432,89.560226 156.948959,90.770615 
	C148.249588,102.798149 139.380707,114.703102 130.279877,126.821350 
	C128.838486,123.405586 125.914474,123.023949 122.771118,123.021744 
	C111.614693,123.013924 100.457924,123.047958 89.301979,122.968689 
	C83.016029,122.924026 82.127396,121.974861 82.023125,115.658539 
	C81.959923,111.829727 81.977905,107.998817 82.011543,104.169312 
	C82.075745,96.857994 82.825760,96.053543 89.972496,96.018456 
	C100.462677,95.966934 110.954483,96.086624 121.443008,95.943748 
	C124.884422,95.896866 129.416107,96.947205 129.600815,91.241890 
	C129.756119,86.444885 125.818489,82.201546 120.934296,82.111099 
	C110.946716,81.926125 100.953949,82.031464 90.963402,81.993996 
	C82.532578,81.962372 82.037094,81.447273 82.005226,72.823517 
	C81.993538,69.659904 82.107979,66.493431 82.009628,63.333096 
	C81.872375,58.922401 83.889778,56.966919 88.313148,57.000412 
	C99.302322,57.083618 110.292694,57.014194 121.282562,56.996517 
	C123.446877,56.993034 125.742546,57.404846 127.749359,56.829258 
	C132.654190,55.422466 136.467178,56.550121 139.722656,60.823704 
	C141.480743,63.214558 142.961487,65.429123 144.721115,67.821838 
z" data-index="53" style="opacity: 1; visibility: hidden;"></path>
</svg>