<svg version="1.1" id="Layer_1" xmlns="http://www.w3.org/2000/svg" xmlns:xlink="http://www.w3.org/1999/xlink" x="0px" y="0px" width="100%" viewBox="0 0 866 650" enable-background="new 0 0 866 650" xml:space="preserve">

<path fill="#13269E" opacity="1.000000" stroke="none" d="
M317.911865,399.853210 
	C317.911865,390.698944 317.911865,381.544678 317.911865,371.457458 
	C316.171936,372.566254 314.844147,373.350494 313.580322,374.226959 
	C290.887848,389.963684 254.632126,385.145325 236.530655,372.068604 
	C210.394241,353.187317 209.655884,315.897675 234.820190,294.391266 
	C256.847839,275.565552 295.736420,272.891632 316.390686,290.461670 
	C316.611053,290.649139 316.988220,290.652252 317.836243,290.901001 
	C317.836243,287.917816 317.836243,285.055115 317.836243,281.366882 
	C325.598358,281.366882 332.848511,281.366913 340.098633,281.366913 
	C347.408020,281.366913 354.717438,281.366882 362.435547,281.366882 
	C362.435547,331.835541 362.435547,382.013885 362.435547,432.511597 
	C323.471008,432.511597 284.572327,432.511597 244.195724,432.511597 
	C245.440170,429.901337 245.936707,427.282745 247.508987,425.822205 
	C256.534515,417.438354 265.815155,409.329102 275.802612,401.045837 
	C288.855469,400.978882 301.115234,401.032837 313.374146,400.955566 
	C314.888977,400.946014 316.399414,400.237701 317.911865,399.853210 
M307.145111,350.830322 
	C308.283966,350.146271 309.483795,349.545715 310.552429,348.765472 
	C323.847931,339.057648 323.681915,322.926544 309.873871,314.012604 
	C298.940002,306.954071 287.231232,306.618256 275.731659,312.583954 
	C267.765015,316.716827 262.170715,322.946655 262.971344,332.779205 
	C263.745117,342.282532 269.448547,348.401337 277.839844,351.709869 
	C287.290161,355.435944 296.991272,355.444183 307.145111,350.830322 
z" data-index="1" style="opacity: 1; visibility: visible; fill: rgb(99, 20, 179); stroke: rgb(99, 20, 179);"></path>
<path fill="#12249D" opacity="1.000000" stroke="none" d="
M738.641602,381.115417 
	C738.641602,381.115417 738.226013,381.064880 738.054688,380.597260 
	C737.259094,379.752747 736.634888,379.375824 736.010620,378.998932 
	C735.716614,378.857819 735.422668,378.716705 734.930298,378.086365 
	C734.414673,377.426514 734.097412,377.255890 733.780212,377.085266 
	C720.769043,366.325836 707.764160,355.558777 694.736633,344.819183 
	C693.472351,343.776917 692.068054,342.904602 690.068848,342.282532 
	C689.271790,344.253632 689.022766,345.895111 689.015808,347.537598 
	C688.975769,357.030396 688.945068,366.523834 689.022522,376.016144 
	C689.043274,378.552673 688.602051,380.015198 685.525146,380.063477 
	C674.238953,380.240631 662.954529,380.607483 651.673767,381.020813 
	C648.241638,381.146606 646.951965,379.803528 646.956421,376.346375 
	C647.020691,326.383453 647.014526,276.420410 646.974915,226.457428 
	C646.971802,222.499420 648.438538,220.825714 652.625671,220.918808 
	C662.946289,221.148285 673.283630,221.234940 683.597290,220.883255 
	C688.169556,220.727356 689.108276,222.287659 689.081116,226.560303 
	C688.901428,254.871521 688.981689,283.184418 689.007690,311.496765 
	C689.009399,313.397705 689.259766,315.298462 689.394531,317.199280 
	C689.847351,317.463806 690.300232,317.728302 690.753052,317.992798 
	C692.066467,316.876984 693.379822,315.761139 694.693237,314.645325 
	C694.693237,314.645325 694.779785,314.782593 694.958496,314.768433 
	C695.416809,314.384186 695.696533,314.014130 695.976257,313.644104 
	C709.197754,303.263672 722.401489,292.860291 735.678223,282.550995 
	C736.631470,281.810791 738.117310,281.438416 739.357605,281.433655 
	C757.523254,281.364166 775.689209,281.381287 793.855042,281.408966 
	C794.451294,281.409882 795.047058,281.740021 796.942078,282.301727 
	C775.882019,297.781158 755.630920,312.666016 734.856995,327.935120 
	C755.471558,344.595062 775.646484,360.899750 795.923218,377.926422 
	C794.341553,379.428955 792.666016,380.868256 790.973572,380.888367 
	C773.531128,381.095703 756.085999,381.073608 738.641602,381.115417 
z" data-index="2" style="opacity: 1; visibility: visible; fill: rgb(99, 20, 179); stroke: rgb(99, 20, 179);"></path>
<path fill="#12259D" opacity="1.000000" stroke="none" d="
M484.095245,314.191284 
	C491.686646,298.509216 504.421631,289.219513 520.034912,283.952454 
	C548.853699,274.230591 577.356018,274.910583 604.643860,289.279144 
	C621.321167,298.060699 631.959045,311.451996 632.236938,331.196075 
	C632.518921,351.233673 621.624390,364.673248 605.241089,374.083466 
	C587.197449,384.447266 567.312866,386.859161 546.872437,385.480652 
	C531.749390,384.460785 517.393799,380.753204 504.459076,372.450256 
	C483.699829,359.124695 475.586456,336.287476 484.095245,314.191284 
M552.757019,308.831390 
	C548.935364,309.881226 544.875183,310.419098 541.333435,312.069641 
	C526.030029,319.201599 523.262390,336.043518 535.359985,347.124176 
	C546.237000,357.086884 566.768677,357.058746 577.631348,347.066162 
	C588.186462,337.356567 587.670776,323.618073 576.284302,314.872559 
	C569.638428,309.768158 561.940918,308.139069 552.757019,308.831390 
z" data-index="3" style="opacity: 1; visibility: visible; fill: rgb(99, 20, 179); stroke: rgb(99, 20, 179);"></path>
<path fill="#11249E" opacity="1.000000" stroke="none" d="
M136.070953,281.379730 
	C141.718582,281.322968 147.366211,281.266174 153.616974,281.633911 
	C160.804825,282.399719 167.389542,282.741058 173.974274,283.082367 
	C174.449387,283.156860 174.924515,283.231354 175.818329,283.800842 
	C180.277252,286.017975 184.317474,287.740143 188.357712,289.462280 
	C188.357712,289.462280 188.420609,289.549774 188.372894,289.914154 
	C190.019989,291.350464 191.714783,292.422424 193.409592,293.494354 
	C193.409592,293.494354 193.439407,293.588623 193.375168,293.957581 
	C195.301392,297.927002 197.358337,301.492889 199.257767,305.140747 
	C200.423447,307.379425 201.347977,309.743713 202.380798,312.051575 
	C202.535782,312.804108 202.690750,313.556671 202.550232,315.013397 
	C202.181686,335.696472 201.964142,355.676636 202.145599,375.653198 
	C202.186661,380.173798 200.793716,381.300507 196.476807,381.173309 
	C186.325348,380.874237 176.151459,380.844727 166.002243,381.179291 
	C161.313446,381.333862 159.708832,380.128937 159.788528,375.176910 
	C160.083298,356.859833 159.951065,338.534943 159.847458,320.213776 
	C159.837418,318.437683 158.916061,316.666748 158.417755,314.893402 
	C158.417755,314.893402 158.142548,314.754852 158.089615,314.413818 
	C158.036682,314.072784 157.859665,313.732239 157.630325,313.513733 
	C156.544128,313.218109 155.687256,313.141022 154.553101,313.078766 
	C153.905899,313.081451 153.535995,313.069336 152.681091,313.036621 
	C139.752899,313.031067 127.309715,313.046082 114.617615,313.200592 
	C113.929451,313.902496 113.490189,314.464905 113.050941,315.027344 
	C113.050949,315.027344 113.004585,315.050873 112.692184,315.327423 
	C112.252686,317.415009 112.017769,319.225922 112.015129,321.037140 
	C111.988167,339.513519 111.928246,357.990509 112.063110,376.465973 
	C112.088005,379.875885 111.154655,381.144928 107.579559,381.071167 
	C97.430130,380.861816 87.273605,381.007019 77.119919,380.989838 
	C70.273232,380.978241 69.997040,380.700012 69.996185,374.047607 
	C69.992638,346.249725 69.992989,318.451843 69.995789,290.653961 
	C69.996521,283.368805 70.284988,283.047424 77.555298,283.018158 
	C89.040337,282.971863 100.525597,282.979523 112.011108,282.976593 
	C112.011459,282.988831 112.031029,282.997223 112.017021,283.462891 
	C112.209457,288.882080 112.415901,293.835571 112.703529,299.120972 
	C113.369705,299.783936 113.954689,300.115051 114.539673,300.446167 
	C114.813194,299.807709 115.086700,299.169250 115.360214,298.530792 
	C115.360207,298.530792 115.502037,298.391907 115.818085,298.429016 
	C116.134140,298.466156 116.495018,298.131805 116.495018,298.131805 
	C116.495018,298.131805 116.362976,297.657013 116.362976,297.657013 
	C116.362976,297.657013 116.478867,297.495575 116.812271,297.502228 
	C117.235657,297.221130 117.325653,296.933380 117.415649,296.645630 
	C117.415642,296.645630 117.522804,296.534027 117.844376,296.541992 
	C118.308617,296.257751 118.451279,295.965515 118.593941,295.673309 
	C118.593941,295.673309 118.667252,295.672638 118.939087,295.638336 
	C119.365005,295.303497 119.519089,295.002930 119.673172,294.702393 
	C119.673180,294.702393 119.932388,295.016388 120.127037,294.849670 
	C121.261375,293.624146 122.201073,292.565308 123.140778,291.506500 
	C123.140778,291.506500 123.234764,291.244263 123.711746,291.175781 
	C125.288994,289.944489 126.389259,288.781708 127.489525,287.618958 
	C127.489532,287.618958 127.585037,287.568665 127.877434,287.562408 
	C128.277679,287.255981 128.385529,286.955811 128.493362,286.655640 
	C128.493362,286.655640 128.580353,286.638641 128.945648,286.615631 
	C131.564270,284.855011 133.817612,283.117371 136.070953,281.379730 
z" data-index="4" style="opacity: 1; visibility: visible; fill: rgb(99, 20, 179); stroke: rgb(99, 20, 179);"></path>
<path fill="#14279D" opacity="1.000000" stroke="none" d="
M488.596924,281.365723 
	C490.497284,281.418976 491.951141,281.487823 494.308594,281.599518 
	C493.087952,283.098206 492.448700,284.122498 491.588226,284.902924 
	C481.357788,294.181610 471.163910,303.503601 460.764191,312.589569 
	C459.213776,313.944153 456.669525,314.725922 454.560211,314.778687 
	C445.268036,315.010956 435.966797,314.878998 426.205872,314.878998 
	C426.205872,337.274414 426.205872,359.329407 426.205872,381.708588 
	C411.051666,381.708588 396.362701,381.708588 381.433899,381.708588 
	C381.433899,348.311462 381.433899,315.116516 381.433899,281.628296 
	C396.266724,281.628296 410.831482,281.628296 425.876587,281.628296 
	C425.876587,287.045776 425.876587,292.265289 425.876587,298.646973 
	C431.995453,293.212982 437.141479,288.371399 442.617859,283.937866 
	C444.357971,282.529114 446.965790,281.536713 449.196625,281.497620 
	C462.177948,281.270142 475.165192,281.383301 488.596924,281.365723 
z" data-index="5" style="opacity: 1; visibility: visible; fill: rgb(99, 20, 179); stroke: rgb(99, 20, 179);"></path>
<path fill="#1C2985" opacity="1.000000" stroke="none" d="
M694.304688,314.798462 
	C693.379822,315.761139 692.066467,316.876984 690.753052,317.992798 
	C690.300232,317.728302 689.847351,317.463806 689.394531,317.199280 
	C689.259766,315.298462 689.009399,313.397705 689.007690,311.496765 
	C688.981689,283.184418 688.901428,254.871521 689.081116,226.560303 
	C689.108276,222.287659 688.169556,220.727356 683.597290,220.883255 
	C673.283630,221.234940 662.946289,221.148285 652.625671,220.918808 
	C648.438538,220.825714 646.971802,222.499420 646.974915,226.457428 
	C647.014526,276.420410 647.020691,326.383453 646.956421,376.346375 
	C646.951965,379.803528 648.241638,381.146606 651.673767,381.020813 
	C662.954529,380.607483 674.238953,380.240631 685.525146,380.063477 
	C688.602051,380.015198 689.043274,378.552673 689.022522,376.016144 
	C688.945068,366.523834 688.975769,357.030396 689.015808,347.537598 
	C689.022766,345.895111 689.271790,344.253632 689.722412,342.344147 
	C690.035767,355.203705 690.035767,368.330841 690.035767,381.751007 
	C675.281433,381.751007 660.702576,381.751007 645.954590,381.751007 
	C645.954590,327.651215 645.954590,273.582825 645.954590,219.389801 
	C660.644653,219.389801 675.079285,219.389801 690.029297,219.389801 
	C690.029297,251.791656 690.029297,283.995972 690.029297,317.020813 
	C691.804993,316.075531 692.860596,315.513580 694.304688,314.798462 
z" data-index="6" style="opacity: 1;"></path>
<path fill="#3E4D99" opacity="1.000000" stroke="none" d="
M158.356689,315.363861 
	C158.916061,316.666748 159.837418,318.437683 159.847458,320.213776 
	C159.951065,338.534943 160.083298,356.859833 159.788528,375.176910 
	C159.708832,380.128937 161.313446,381.333862 166.002243,381.179291 
	C176.151459,380.844727 186.325348,380.874237 196.476807,381.173309 
	C200.793716,381.300507 202.186661,380.173798 202.145599,375.653198 
	C201.964142,355.676636 202.181686,335.696472 202.507141,315.400146 
	C202.899765,323.390808 203.121841,331.698547 203.161804,340.007172 
	C203.228943,353.959290 203.180206,367.911987 203.180206,382.106567 
	C188.170258,382.106567 173.581711,382.106567 158.295624,382.106567 
	C158.295624,359.969849 158.295624,337.902069 158.356689,315.363861 
z" data-index="7"></path>
<path fill="#162585" opacity="1.000000" stroke="none" d="
M112.010757,282.964355 
	C100.525597,282.979523 89.040337,282.971863 77.555298,283.018158 
	C70.284988,283.047424 69.996521,283.368805 69.995789,290.653961 
	C69.992989,318.451843 69.992638,346.249725 69.996185,374.047607 
	C69.997040,380.700012 70.273232,380.978241 77.119919,380.989838 
	C87.273605,381.007019 97.430130,380.861816 107.579559,381.071167 
	C111.154655,381.144928 112.088005,379.875885 112.063110,376.465973 
	C111.928246,357.990509 111.988167,339.513519 112.015129,321.037140 
	C112.017769,319.225922 112.252686,317.415009 112.673050,315.309814 
	C113.003128,315.476196 113.039955,315.936676 112.940018,317.196899 
	C112.850304,338.961487 112.897346,359.926300 112.944389,380.891144 
	C112.957825,381.080353 112.971252,381.269562 112.370636,381.636414 
	C99.701546,381.807404 87.646217,381.843292 75.591766,381.756348 
	C73.323746,381.740021 71.059265,381.233856 68.793152,380.953705 
	C68.743965,349.360535 68.694778,317.767334 68.814896,285.338013 
	C68.931374,284.240143 68.878563,283.978485 68.825745,283.716797 
	C68.806702,283.299896 68.787659,282.883026 69.467041,282.320923 
	C81.875717,282.183594 93.586243,282.152222 105.295990,282.233643 
	C107.535828,282.249207 109.772583,282.709320 112.010757,282.964355 
z" data-index="8" style="opacity: 1;"></path>
<path fill="#18287C" opacity="1.000000" stroke="none" d="
M738.931641,381.461060 
	C756.085999,381.073608 773.531128,381.095703 790.973572,380.888367 
	C792.666016,380.868256 794.341553,379.428955 796.074341,378.222168 
	C797.312012,378.759674 798.500305,379.723358 799.688538,380.687073 
	C799.542114,381.060272 799.395691,381.433502 799.249268,381.806702 
	C779.240051,381.806702 759.230896,381.806702 738.931641,381.461060 
z" data-index="9"></path>
<path fill="#3E4D99" opacity="1.000000" stroke="none" d="
M112.011108,282.976593 
	C109.772583,282.709320 107.535828,282.249207 105.295990,282.233643 
	C93.586243,282.152222 81.875717,282.183594 69.717850,282.125061 
	C83.765297,282.074341 98.260368,282.074341 113.192474,282.074341 
	C113.192474,286.450623 113.101868,290.885651 113.252625,295.312500 
	C113.293144,296.502319 114.068024,297.667175 114.933006,298.687134 
	C115.086700,299.169250 114.813194,299.807709 114.539673,300.446167 
	C113.954689,300.115051 113.369705,299.783936 112.753159,298.676849 
	C112.491417,292.932983 112.261223,287.965118 112.031021,282.997223 
	C112.031029,282.997223 112.011459,282.988831 112.011108,282.976593 
z" data-index="10"></path>
<path fill="#3E4D99" opacity="1.000000" stroke="none" d="
M113.055168,380.512939 
	C112.897346,359.926300 112.850304,338.961487 112.881653,317.539307 
	C113.028687,338.099548 113.097313,359.117126 113.055168,380.512939 
z" data-index="11"></path>
<path fill="#3E4D99" opacity="1.000000" stroke="none" d="
M157.859665,313.732239 
	C157.859665,313.732239 158.036682,314.072784 158.066162,314.261566 
	C143.371826,314.525848 128.648010,314.601318 113.487564,314.852051 
	C113.490189,314.464905 113.929451,313.902496 114.956169,313.453918 
	C124.331032,313.654510 133.118805,313.826813 141.905640,313.787872 
	C145.660126,313.771240 149.412659,313.314148 153.166077,313.057190 
	C153.535995,313.069336 153.905899,313.081451 154.794189,313.300903 
	C156.161606,313.582855 157.010635,313.657562 157.859665,313.732239 
z" data-index="12"></path>
<path fill="#3E4D99" opacity="1.000000" stroke="none" d="
M68.673904,381.222839 
	C71.059265,381.233856 73.323746,381.740021 75.591766,381.756348 
	C87.646217,381.843292 99.701546,381.807404 112.199608,381.863770 
	C98.171089,381.998444 83.699554,382.086426 69.227890,382.139984 
	C69.004280,382.140808 68.779106,381.717377 68.673904,381.222839 
z" data-index="13"></path>
<path fill="#3E4D99" opacity="1.000000" stroke="none" d="
M202.455124,311.667999 
	C201.347977,309.743713 200.423447,307.379425 199.257767,305.140747 
	C197.358337,301.492889 195.301392,297.927002 193.422516,293.971741 
	C199.148926,298.174011 201.661972,304.310303 202.455124,311.667999 
z" data-index="14"></path>
<path fill="#1C2985" opacity="1.000000" stroke="none" d="
M317.450806,399.869995 
	C316.399414,400.237701 314.888977,400.946014 313.374146,400.955566 
	C301.115234,401.032837 288.855469,400.978882 276.100891,400.924988 
	C277.309723,400.559540 279.011719,399.964325 280.717957,399.951813 
	C292.808075,399.863220 304.899078,399.894043 317.450806,399.869995 
z" data-index="15" style="opacity: 1;"></path>
<path fill="#3E4D99" opacity="1.000000" stroke="none" d="
M173.659729,282.868774 
	C167.389542,282.741058 160.804825,282.399719 154.075897,281.700562 
	C160.402863,281.780182 166.874023,282.217651 173.659729,282.868774 
z" data-index="16"></path>
<path fill="#3E4D99" opacity="1.000000" stroke="none" d="
M188.151184,289.215210 
	C184.317474,287.740143 180.277252,286.017975 176.108994,284.017792 
	C179.968872,285.482513 183.956772,287.225311 188.151184,289.215210 
z" data-index="17"></path>
<path fill="#3E4D99" opacity="1.000000" stroke="none" d="
M135.732407,281.266663 
	C133.817612,283.117371 131.564270,284.855011 128.956024,286.572571 
	C130.865372,284.752838 133.129623,282.953217 135.732407,281.266663 
z" data-index="18"></path>
<path fill="#3E4D99" opacity="1.000000" stroke="none" d="
M193.242035,293.225159 
	C191.714783,292.422424 190.019989,291.350464 188.424103,289.930908 
	C190.040176,290.707489 191.557327,291.831726 193.242035,293.225159 
z" data-index="19"></path>
<path fill="#3E4D99" opacity="1.000000" stroke="none" d="
M127.201630,287.716492 
	C126.389259,288.781708 125.288994,289.944489 123.842896,291.128876 
	C124.635963,290.038330 125.774857,288.926147 127.201630,287.716492 
z" data-index="20"></path>
<path fill="#3E4D99" opacity="1.000000" stroke="none" d="
M122.875244,291.637207 
	C122.201073,292.565308 121.261375,293.624146 120.004807,294.687561 
	C120.661850,293.717407 121.635788,292.742676 122.875244,291.637207 
z" data-index="21"></path>
<path fill="#18287C" opacity="1.000000" stroke="none" d="
M736.117126,379.253082 
	C736.634888,379.375824 737.259094,379.752747 737.941162,380.421387 
	C737.407227,380.311157 736.815430,379.909180 736.117126,379.253082 
z" data-index="22"></path>
<path fill="#1C2985" opacity="1.000000" stroke="none" d="
M695.749268,313.688965 
	C695.696533,314.014130 695.416809,314.384186 694.885376,314.733276 
	C694.929810,314.386108 695.226074,314.059937 695.749268,313.688965 
z" data-index="23"></path>
<path fill="#3E4D99" opacity="1.000000" stroke="none" d="
M117.231857,296.700867 
	C117.325653,296.933380 117.235657,297.221130 116.894386,297.446259 
	C116.679436,297.110809 116.814423,296.901611 117.231857,296.700867 
z" data-index="24"></path>
<path fill="#3E4D99" opacity="1.000000" stroke="none" d="
M128.284119,286.709229 
	C128.385529,286.955811 128.277679,287.255981 127.905319,287.516174 
	C127.660004,287.162079 127.804695,286.924255 128.284119,286.709229 
z" data-index="25"></path>
<path fill="#3E4D99" opacity="1.000000" stroke="none" d="
M68.691475,283.890747 
	C68.878563,283.978485 68.931374,284.240143 68.901993,284.894287 
	C68.717392,285.025055 68.594513,284.768890 68.521378,284.499268 
	C68.485596,284.367340 68.542336,284.210327 68.691475,283.890747 
z" data-index="26"></path>
<path fill="#18287C" opacity="1.000000" stroke="none" d="
M733.896240,377.337708 
	C734.097412,377.255890 734.414673,377.426514 734.853760,377.844696 
	C734.654480,377.924866 734.333374,377.757507 733.896240,377.337708 
z" data-index="27"></path>
<path fill="#3E4D99" opacity="1.000000" stroke="none" d="
M119.431534,294.752563 
	C119.519089,295.002930 119.365005,295.303497 118.938934,295.601685 
	C118.696419,295.238708 118.870735,294.973206 119.431534,294.752563 
z" data-index="28"></path>
<path fill="#3E4D99" opacity="1.000000" stroke="none" d="
M118.378014,295.714630 
	C118.451279,295.965515 118.308617,296.257751 117.902451,296.490875 
	C117.703712,296.121674 117.878098,295.896393 118.378014,295.714630 
z" data-index="29"></path>
<path fill="#3E4D99" opacity="1.000000" stroke="none" d="
M116.198212,297.697571 
	C116.362976,297.657013 116.495018,298.131805 116.495018,298.131805 
	C116.495018,298.131805 116.134140,298.466156 115.902893,298.377441 
	C115.700432,298.044891 115.821030,297.861359 116.198212,297.697571 
z" data-index="30"></path>

<path fill="#FBFCFE" opacity="1.000000" stroke="none" d="
M553.222168,308.808350 
	C561.940918,308.139069 569.638428,309.768158 576.284302,314.872559 
	C587.670776,323.618073 588.186462,337.356567 577.631348,347.066162 
	C566.768677,357.058746 546.237000,357.086884 535.359985,347.124176 
	C523.262390,336.043518 526.030029,319.201599 541.333435,312.069641 
	C544.875183,310.419098 548.935364,309.881226 553.222168,308.808350 
z" data-index="32" style="opacity: 1; visibility: hidden;"></path>
<path fill="#132086" opacity="1.000000" stroke="none" d="
M152.681091,313.036621 
	C149.412659,313.314148 145.660126,313.771240 141.905640,313.787872 
	C133.118805,313.826813 124.331032,313.654510 115.205078,313.314423 
	C127.309715,313.046082 139.752899,313.031067 152.681091,313.036621 
z" data-index="33"></path>
<path fill="#162585" opacity="1.000000" stroke="none" d="
M112.017014,283.462891 
	C112.261223,287.965118 112.491417,292.932983 112.671982,298.344971 
	C112.415901,293.835571 112.209457,288.882080 112.017014,283.462891 
z" data-index="34"></path>
<path fill="#132086" opacity="1.000000" stroke="none" d="
M157.630325,313.513733 
	C157.010635,313.657562 156.161606,313.582855 155.071487,313.286072 
	C155.687256,313.141022 156.544128,313.218109 157.630325,313.513733 
z" data-index="35"></path>
</svg>