<svg version="1.1" id="Layer_1" xmlns="http://www.w3.org/2000/svg" xmlns:xlink="http://www.w3.org/1999/xlink" x="0px" y="0px" width="100%" viewBox="0 0 1613 501" enable-background="new 0 0 1613 501" xml:space="preserve">

<path fill="#00D8FF" opacity="1.000000" stroke="none" d="
M0.999997,244.466858 
	C1.870738,241.598816 2.833076,239.226364 3.597169,236.791702 
	C8.146461,222.296066 17.304533,211.258591 28.712952,201.503830 
	C40.727810,191.230530 53.967468,182.891983 68.248108,176.617844 
	C84.278450,169.574966 101.010681,164.129761 117.435997,157.985306 
	C117.876709,157.820435 118.299484,157.607559 119.042297,157.279343 
	C117.553764,150.228317 115.806114,143.257553 114.659058,136.189316 
	C113.186455,127.115150 111.829704,117.991951 111.098579,108.835938 
	C110.320892,99.096725 109.982994,89.291023 110.079086,79.520508 
	C110.237228,63.441349 112.661263,47.596416 119.655006,33.025631 
	C127.519669,16.640368 139.490448,5.225345 158.786758,2.832879 
	C174.556000,0.877718 189.197540,4.403760 203.510391,9.941760 
	C225.665848,18.514256 245.216049,31.505730 263.290253,46.791187 
	C269.572449,52.104084 275.796448,57.485798 282.000397,62.796177 
	C293.039368,53.660057 303.721405,44.067730 315.176788,35.510677 
	C333.416229,21.886005 352.834625,10.033376 375.214630,4.526567 
	C390.757568,0.702082 406.396729,-0.422927 421.435425,7.682082 
	C432.010162,13.381279 438.897217,22.334013 443.678009,32.686188 
	C453.760010,54.517445 455.314270,78.031204 453.728180,101.501465 
	C452.471649,120.095825 448.910522,138.534439 446.237579,158.027725 
	C450.314026,159.380615 455.649994,161.160126 460.991516,162.922821 
	C487.231995,171.582077 512.207825,182.944305 533.677307,200.539291 
	C548.139221,212.391327 560.306396,226.439621 562.855896,246.138947 
	C564.235840,256.801727 561.497375,266.942078 556.247192,276.055481 
	C544.861267,295.819580 527.201050,308.883362 507.846649,320.095612 
	C488.805115,331.126648 468.323700,338.578583 446.699738,345.597076 
	C447.892670,351.871704 449.306549,358.216248 450.268890,364.628601 
	C451.682281,374.046356 453.075043,383.485901 453.911743,392.966034 
	C454.668213,401.537048 455.136200,410.187714 454.901947,418.780640 
	C454.419830,436.466766 451.873260,453.918457 444.304901,470.082092 
	C436.896912,485.903229 425.110535,497.100464 407.390076,500.700653 
	C404.174194,501.354034 400.777008,501.114929 397.231750,501.643921 
	C396.555542,502.000000 396.111115,502.000000 395.101013,501.643616 
	C388.974945,500.668457 383.310242,500.526520 377.874481,499.337677 
	C363.979706,496.298828 351.149567,490.568756 338.806274,483.476318 
	C322.740723,474.245087 308.123138,463.150360 294.341370,450.857361 
	C290.558197,447.482880 286.688873,444.204987 282.910583,440.927429 
	C265.370728,457.293732 247.054626,471.928894 226.289658,483.454590 
	C206.825745,494.258209 186.657257,501.746826 163.970718,501.056976 
	C147.743698,500.563568 135.361221,493.354218 125.886749,480.583496 
	C114.307083,464.975189 111.202576,446.667511 110.109276,428.012512 
	C108.563454,401.636047 111.805664,375.625549 118.168373,350.019348 
	C118.796684,347.490723 118.677345,346.725250 116.019501,345.923737 
	C88.175110,337.527191 61.683357,326.242218 37.988255,309.017609 
	C21.759989,297.220856 8.622119,283.136597 2.926625,263.283020 
	C2.587721,262.101654 1.655909,261.090424 1.000001,260.000000 
	C1.000000,254.977905 1.000000,249.955811 0.999997,244.466858 
M197.042191,166.980042 
	C181.110031,169.391220 165.177872,171.802399 148.529388,174.321991 
	C154.782059,191.213196 160.506897,206.678528 166.389877,222.571045 
	C177.572815,203.560852 188.121674,185.628555 199.075760,167.334518 
	C199.178482,166.975143 199.281204,166.615768 199.383926,166.256378 
	C198.898376,166.476929 198.412811,166.697464 197.042191,166.980042 
M365.822937,166.423630 
	C365.401794,166.378998 364.980682,166.334381 364.559540,166.289749 
	C364.810455,166.752899 365.061371,167.216049 365.719360,168.236847 
	C376.311310,186.293671 386.903290,204.350479 397.767120,222.870758 
	C403.666290,207.033508 409.466125,191.462997 415.763947,174.555511 
	C398.643005,171.923004 382.356140,169.418747 365.822937,166.423630 
M313.000916,365.980103 
	C292.295563,365.980103 271.590240,365.980103 250.884888,365.980103 
	C250.685776,366.413422 250.486664,366.846710 250.287537,367.280029 
	C261.005066,380.058136 271.722595,392.836243 283.176270,406.492035 
	C294.259155,392.487793 304.464874,379.592010 315.075775,366.334473 
	C315.178497,365.975098 315.281189,365.615753 315.383911,365.256348 
	C314.898376,365.476898 314.412842,365.697418 313.000916,365.980103 
M269.548645,161.000000 
	C257.504578,161.669983 245.452362,162.232407 233.426331,163.141037 
	C231.857834,163.259537 229.969131,164.848648 228.995010,166.278595 
	C211.203323,192.395721 195.575562,219.784348 181.583328,248.100693 
	C180.676636,249.935577 180.633728,252.992950 181.542831,254.800919 
	C187.676514,266.999359 193.751938,279.262848 200.659546,291.027710 
	C210.128250,307.154572 220.291382,322.874847 230.260101,338.704376 
	C230.917267,339.747894 232.407700,340.808899 233.581955,340.895660 
	C240.674057,341.419983 247.789398,341.992004 254.892487,341.939636 
	C278.820312,341.763184 302.746307,341.336792 326.672760,340.991150 
	C330.381165,340.937592 333.580872,339.961090 335.796753,336.576569 
	C353.008118,310.287811 368.740540,283.160034 382.623566,254.958115 
	C383.975769,252.211319 383.613464,250.228409 382.354431,247.652405 
	C369.490295,221.332779 354.416718,196.299576 339.012939,171.414780 
	C334.805267,164.617310 329.556824,162.204269 322.330688,162.005661 
	C310.561218,161.682190 298.793427,161.288239 287.022705,161.021332 
	C281.529663,160.896759 276.031464,161.000000 269.548645,161.000000 
M148.461731,241.940048 
	C148.074600,240.860168 147.705521,239.773438 147.297638,238.701447 
	C140.824722,221.689484 134.341446,204.681427 127.876663,187.666367 
	C127.041031,185.467010 126.295128,183.233551 125.367149,180.620209 
	C115.044899,184.211777 105.191650,187.316895 95.581963,191.049133 
	C73.620186,199.578735 53.046883,210.519531 36.675434,227.935898 
	C30.325680,234.690933 24.479788,242.190994 25.107346,252.186508 
	C25.715733,261.876678 31.336973,269.493469 37.770088,276.128113 
	C57.492378,296.468323 82.062958,308.842621 108.477821,317.979706 
	C113.995583,319.888367 119.583412,321.594452 124.943604,323.330566 
	C125.542892,322.404602 125.768959,322.158966 125.879807,321.869232 
	C133.791077,301.191010 141.381546,280.381531 149.780014,259.903351 
	C152.404358,253.504333 152.810623,248.178146 148.461731,241.940048 
M188.779175,360.971588 
	C180.683624,359.649994 172.577316,358.390411 164.495728,356.988281 
	C157.256256,355.732269 150.044006,354.319275 142.678513,352.949249 
	C142.085800,354.540192 141.393036,355.868408 141.094696,357.280029 
	C136.550903,378.778290 133.133011,400.371643 133.908249,422.495728 
	C134.315750,434.125153 135.979584,445.449280 140.212051,456.229431 
	C144.119904,466.182892 149.742249,475.297211 161.578156,476.546112 
	C168.343414,477.259918 175.479553,476.576233 182.191818,475.235565 
	C196.381058,472.401550 209.419540,466.120239 221.259979,458.095184 
	C236.736603,447.605713 251.426025,435.954773 266.756134,424.579407 
	C261.656616,418.595459 257.377289,413.835724 253.388901,408.843536 
	C242.510818,395.227478 231.827148,381.455505 220.874954,367.899994 
	C219.221832,365.853943 216.698288,363.574738 214.312057,363.227631 
	C206.168839,362.043243 197.907120,361.673645 188.779175,360.971588 
M367.772339,470.895721 
	C368.857391,471.265686 369.967896,471.574677 371.023529,472.015198 
	C381.027893,476.190186 391.475647,478.500702 402.211365,476.843689 
	C414.208557,474.991943 420.148865,465.998535 423.939514,455.522430 
	C430.789276,436.591827 432.678558,417.048706 429.997345,397.115753 
	C428.139099,383.300995 426.013794,369.521820 423.957672,355.734253 
	C423.578278,353.190125 422.611938,351.478943 419.357574,352.269958 
	C396.336182,357.865540 372.921173,360.936798 349.361694,363.110260 
	C348.070282,363.229401 346.617340,364.555725 345.735870,365.701874 
	C337.124268,376.898956 328.744598,388.276123 320.040283,399.399658 
	C313.659637,407.553680 306.892334,415.405212 300.456421,423.198944 
	C320.166565,442.701233 341.843384,459.149994 367.772339,470.895721 
M135.869843,113.797089 
	C137.852875,126.197037 139.835907,138.596985 141.805161,150.910675 
	C144.233276,150.910675 145.586472,151.083359 146.882858,150.884918 
	C168.272232,147.610626 189.653854,144.285767 211.038788,140.982407 
	C215.308777,140.322800 218.400085,138.586304 221.263412,134.792664 
	C231.957947,120.623482 243.267349,106.916191 254.435760,93.108185 
	C257.830475,88.911148 261.514221,84.947906 265.135132,80.797882 
	C263.904877,79.508217 262.950012,78.348946 261.838928,77.366333 
	C246.170395,63.509586 229.818268,50.519398 211.504211,40.318924 
	C198.537109,33.096584 184.761856,27.104158 169.837616,26.246017 
	C154.138031,25.343300 146.302017,30.851982 140.057953,47.470798 
	C132.043686,68.801079 133.170975,90.867653 135.869843,113.797089 
M319.503174,62.997074 
	C312.832184,68.820190 306.161224,74.643303 299.527954,80.433510 
	C302.238739,83.773949 304.334167,86.309364 306.379761,88.884369 
	C319.166809,104.980850 331.908722,121.113480 344.784790,137.138321 
	C345.850739,138.464935 347.711700,139.686188 349.354034,139.926575 
	C357.806335,141.163818 366.355194,141.774063 374.781982,143.145706 
	C390.405365,145.688736 405.967468,148.608093 422.807739,151.592773 
	C424.890198,135.895233 427.043518,120.147987 429.054657,104.382599 
	C431.620270,84.270905 430.191284,64.432579 422.609589,45.565235 
	C417.493073,32.832611 409.882996,25.055651 394.013947,25.890682 
	C380.617157,26.595627 368.494751,31.382292 357.271149,37.688271 
	C344.300598,44.975750 332.384552,54.140102 319.503174,62.997074 
M439.695831,321.767548 
	C440.489868,321.661285 441.311920,321.652710 442.073853,321.434479 
	C459.349426,316.486908 475.805725,309.554657 491.656860,301.110382 
	C506.439087,293.235596 520.368591,284.204163 530.659668,270.706848 
	C537.086304,262.277863 542.311829,252.975571 536.794922,242.094330 
	C534.009827,236.601135 530.374329,231.279922 526.122253,226.839539 
	C514.612549,214.820038 500.660828,205.897858 485.632416,199.096542 
	C472.069916,192.958603 457.868530,188.228287 443.921967,182.948395 
	C442.302795,182.335403 440.511597,182.176895 439.709076,182.003769 
	C430.309235,205.066696 421.138031,227.494919 412.096008,249.975082 
	C411.651550,251.080063 412.026825,252.771957 412.541779,253.965622 
	C417.418793,265.269897 422.725433,276.399384 427.275391,287.831116 
	C431.633911,298.781799 435.240570,310.031738 439.695831,321.767548 
M405.113525,298.273285 
	C402.683533,292.122620 400.253540,285.971954 397.794922,279.748840 
	C386.851013,298.893402 376.121826,317.662292 364.638794,337.749939 
	C382.359741,334.706787 399.148773,331.823700 416.789703,328.794312 
	C412.784363,318.230042 409.131805,308.596161 405.113525,298.273285 
M162.111038,291.738403 
	C157.662674,304.276306 153.214310,316.814240 148.577362,329.883698 
	C166.148361,332.692749 182.766617,335.349518 199.869446,338.083740 
	C188.744720,318.900635 177.935638,300.261810 166.878204,281.194733 
	C165.377548,284.549652 163.923904,287.799500 162.111038,291.738403 
M299.001984,117.502029 
	C293.525116,111.189674 288.048248,104.877319 282.009705,97.917572 
	C270.802673,111.403664 260.259674,124.090675 249.116547,137.499847 
	C271.565308,137.499847 292.780304,137.499847 314.873840,137.499847 
	C309.573181,130.775909 304.541107,124.392723 299.001984,117.502029 
z" data-index="1" style="opacity: 1; visibility: visible;"></path>

<path fill="#00D8FF" opacity="1.000000" stroke="none" d="
M1614.000000,339.666687 
	C1605.306519,347.055389 1595.595093,350.776917 1584.181763,351.285187 
	C1573.596802,351.756592 1563.739136,350.920410 1554.512085,345.255859 
	C1544.873413,339.338593 1540.670898,330.204498 1539.116821,319.667755 
	C1538.204224,313.480194 1538.062378,307.139160 1538.045532,300.865906 
	C1537.950928,265.707520 1538.000000,230.548752 1538.000000,195.390106 
	C1538.000000,193.441116 1538.000000,191.492126 1538.000000,189.049622 
	C1527.844360,189.049622 1518.257935,189.049622 1508.340332,189.049622 
	C1508.340332,179.974838 1508.340332,171.393906 1508.340332,162.129791 
	C1518.011230,162.129791 1527.722534,162.129791 1537.916626,162.129791 
	C1537.916626,145.209763 1537.916626,128.959763 1537.916626,112.358032 
	C1547.988770,112.358032 1557.569946,112.358032 1567.832764,112.358032 
	C1567.832764,128.641006 1567.832764,145.015533 1567.832764,161.878601 
	C1580.415161,161.878601 1592.335693,161.878601 1604.623535,161.878601 
	C1604.623535,170.949493 1604.623535,179.532227 1604.623535,188.797302 
	C1592.730225,188.797302 1580.687988,188.797302 1568.000000,188.797302 
	C1568.000000,191.404846 1568.000000,193.343613 1568.000000,195.282379 
	C1568.000000,230.940903 1568.067017,266.599640 1567.952393,302.257812 
	C1567.924194,311.025421 1569.689087,319.012024 1578.014771,323.249634 
	C1586.152222,327.391479 1594.015015,324.626038 1601.345703,320.141907 
	C1602.581299,319.386108 1603.852539,318.688324 1605.689819,317.627289 
	C1608.336670,324.549835 1610.841187,331.100189 1613.672852,337.825256 
	C1614.000000,338.444458 1614.000000,338.888885 1614.000000,339.666687 
z" data-index="3" style="opacity: 1;"></path>
<path fill="#00D8FF" opacity="1.000000" stroke="none" d="
M886.753906,331.229370 
	C890.213135,336.381958 893.426331,341.263885 897.180603,346.967896 
	C883.990723,346.967896 871.891174,347.114929 859.804749,346.781738 
	C858.294250,346.740082 856.504333,344.384033 855.434143,342.720642 
	C842.908447,323.252167 830.511536,303.700836 818.047241,284.192780 
	C810.710815,272.710510 803.244385,261.310577 795.996216,249.773224 
	C794.236450,246.972183 792.270020,245.862152 788.868896,245.910721 
	C774.214966,246.120041 759.556274,246.000198 744.227661,246.000198 
	C744.227661,279.589661 744.227661,312.953613 744.227661,346.655823 
	C733.315491,346.655823 723.068298,346.655823 712.409180,346.655823 
	C712.409180,262.336426 712.409180,177.986923 712.409180,93.000084 
	C714.428467,93.000084 716.369995,93.000084 718.311523,93.000076 
	C752.968933,93.000053 787.639771,92.403389 822.279419,93.188156 
	C850.161804,93.819832 877.532715,109.696289 888.218506,138.361343 
	C896.833496,161.471451 896.581848,184.394073 885.658508,206.307312 
	C874.841614,228.006989 856.120178,239.671158 832.184204,243.027267 
	C831.274231,243.154846 830.403137,243.559677 829.108154,243.961075 
	C848.390625,273.186493 867.449280,302.072601 886.753906,331.229370 
M744.000000,162.500000 
	C744.000000,180.899811 744.000000,199.299622 744.000000,217.484299 
	C745.137451,217.771408 745.455994,217.925278 745.772644,217.921310 
	C770.025574,217.618362 794.295593,217.744492 818.523560,216.795502 
	C830.007751,216.345673 840.255493,210.952484 847.906311,202.358139 
	C858.731140,190.198349 861.876099,175.736664 859.145508,159.590759 
	C855.293030,136.810822 835.203247,122.372490 813.719910,122.066467 
	C792.411316,121.762939 771.094971,122.000114 749.782043,122.000153 
	C748.011108,122.000153 746.240234,122.000160 744.000000,122.000160 
	C744.000000,135.599533 744.000000,148.549759 744.000000,162.500000 
z" data-index="4" style="opacity: 1;"></path>
<path fill="#00D8FF" opacity="1.000000" stroke="none" d="
M1023.065552,351.000183 
	C1007.276184,352.968689 992.375732,350.749176 978.058899,345.442535 
	C953.705750,336.415924 937.030884,319.361023 926.927368,295.469330 
	C919.542847,278.006989 918.556030,259.654022 920.303772,241.420364 
	C922.248535,221.131653 930.145020,202.868332 944.042847,187.280334 
	C959.358826,170.101700 978.440552,160.258789 1000.923218,158.232971 
	C1030.463135,155.571243 1056.619629,163.908707 1076.463013,187.099716 
	C1087.814453,200.366226 1094.349854,216.160065 1096.894531,233.371902 
	C1098.404785,243.587280 1098.820923,253.964432 1099.780273,264.850708 
	C1049.602661,264.850708 1000.701294,264.850708 950.798523,264.850708 
	C951.246521,268.408508 951.431763,271.424164 952.025940,274.357025 
	C957.479980,301.279816 977.530273,322.459900 1005.868103,326.066406 
	C1029.649292,329.093018 1050.403687,322.737823 1068.453125,307.102539 
	C1069.796143,305.939178 1071.404053,305.081390 1073.140137,303.912292 
	C1076.934570,308.963898 1080.382324,314.160309 1084.468994,318.793152 
	C1087.459717,322.183441 1086.787842,324.249298 1083.695312,326.855225 
	C1070.633911,337.860962 1055.923706,345.525818 1039.150391,348.932922 
	C1034.016113,349.975830 1028.742065,350.330292 1023.065552,351.000183 
M1067.888550,227.819016 
	C1067.746948,227.517517 1067.558105,227.229111 1067.470459,226.912674 
	C1057.693848,191.660980 1027.030518,176.674805 994.600891,184.463501 
	C974.595154,189.268341 962.025513,203.436188 955.046387,222.520248 
	C952.703613,228.926361 950.134338,235.392288 951.325500,242.628052 
	C990.980408,242.628052 1030.354736,242.628052 1070.387817,242.628052 
	C1069.532227,237.662048 1068.756470,233.159607 1067.888550,227.819016 
z" data-index="5" style="opacity: 1; visibility: visible;"></path>
<path fill="#00D8FF" opacity="1.000000" stroke="none" d="
M1284.071777,194.998688 
	C1285.423096,202.128326 1287.771118,208.857239 1287.826904,215.605133 
	C1288.171631,257.265137 1288.000000,298.929443 1288.000000,340.592316 
	C1288.000000,342.543060 1288.000000,344.493774 1288.000000,346.718079 
	C1278.185547,346.718079 1268.938354,346.718079 1259.081787,346.718079 
	C1259.081787,340.707092 1259.081787,334.834839 1259.081787,328.410339 
	C1252.676514,332.905060 1247.089233,337.151733 1241.182861,340.894958 
	C1232.019165,346.702393 1221.679321,349.610901 1211.069336,350.834564 
	C1200.645508,352.036682 1190.159912,352.005341 1179.790894,349.130127 
	C1156.826172,342.762115 1141.007690,328.749542 1135.504517,305.443237 
	C1131.377563,287.964752 1133.159546,270.456268 1144.029419,255.255890 
	C1152.977295,242.743134 1165.295898,234.655670 1180.399780,231.352386 
	C1200.843384,226.881256 1220.738892,229.049393 1239.442139,238.383423 
	C1246.266113,241.788956 1252.125977,247.126282 1258.695312,251.773102 
	C1258.298584,252.009247 1258.785034,251.851349 1258.782227,251.702576 
	C1258.557007,239.604202 1259.130127,227.416153 1257.834961,215.430298 
	C1255.933716,197.837494 1242.879150,188.347824 1227.053345,185.183197 
	C1205.078857,180.788956 1184.775391,185.628693 1167.058838,199.635880 
	C1163.584961,202.382492 1160.955078,206.196793 1157.222656,210.303299 
	C1151.969360,202.656799 1147.387451,195.987610 1142.650635,189.092926 
	C1153.054932,177.384033 1165.359009,169.302002 1179.664185,163.918976 
	C1194.860229,158.200760 1210.639282,157.040680 1226.497925,158.182007 
	C1241.007935,159.226288 1255.038818,162.811050 1266.941284,171.993622 
	C1274.683228,177.966385 1280.510498,185.415604 1284.071777,194.998688 
M1240.968384,258.474121 
	C1228.929199,252.237503 1216.012207,250.021652 1202.668457,251.116211 
	C1191.905273,251.999100 1182.019531,256.144165 1174.616943,264.063019 
	C1156.659912,283.272247 1162.183838,313.113922 1185.657715,324.820404 
	C1196.284302,330.119904 1207.536743,330.802094 1219.324707,329.160034 
	C1234.740234,327.012604 1247.496460,320.530151 1257.588257,308.800568 
	C1258.529541,307.706512 1258.917847,305.825470 1258.938110,304.301514 
	C1259.059814,295.147461 1259.038086,285.990601 1258.957642,276.835632 
	C1258.945312,275.427765 1258.864014,273.482941 1257.993896,272.707947 
	C1252.658325,267.955658 1247.086426,263.468750 1240.968384,258.474121 
z" data-index="6" style="opacity: 1;"></path>
<path fill="#00D8FF" opacity="1.000000" stroke="none" d="
M1408.760742,322.360657 
	C1419.635010,325.286560 1430.201416,326.036377 1440.913086,323.588318 
	C1454.803955,320.413696 1465.019165,311.933289 1474.086548,300.772339 
	C1480.744873,306.933228 1487.368896,313.062225 1493.958984,319.159912 
	C1483.718506,332.665955 1471.354736,342.420502 1455.462402,347.207672 
	C1431.209595,354.513184 1407.159302,353.474579 1384.410278,342.510620 
	C1359.391968,330.452911 1343.774048,309.897827 1337.182007,282.981964 
	C1330.793579,256.896790 1332.250000,231.044235 1344.303955,206.832672 
	C1355.566162,184.211243 1373.379028,168.554657 1398.345337,161.796249 
	C1422.655029,155.215576 1446.168945,156.325317 1468.873047,167.937515 
	C1478.247803,172.732315 1484.947266,180.572189 1492.219360,187.779434 
	C1493.916870,189.461945 1493.771729,191.051163 1491.847290,192.715347 
	C1485.988525,197.781799 1480.244873,202.981247 1474.090698,208.454086 
	C1471.574219,205.629059 1469.416138,202.990616 1467.034912,200.571732 
	C1457.797974,191.188293 1446.657593,186.225723 1433.453491,184.870255 
	C1413.374878,182.809052 1396.462524,189.008820 1382.492310,203.137512 
	C1373.451416,212.281006 1368.718018,223.974960 1366.153564,236.341568 
	C1361.979370,256.471283 1364.234619,275.963440 1374.101440,294.202820 
	C1381.654053,308.164337 1393.021118,317.684998 1408.760742,322.360657 
z" data-index="7"></path>

<path fill="#4C6971" opacity="1.000000" stroke="none" d="
M148.676804,242.259460 
	C152.810623,248.178146 152.404358,253.504333 149.780014,259.903351 
	C141.381546,280.381531 133.791077,301.191010 125.879807,321.869232 
	C125.768959,322.158966 125.542892,322.404602 124.943604,323.330566 
	C119.583412,321.594452 113.995583,319.888367 108.477821,317.979706 
	C82.062958,308.842621 57.492378,296.468323 37.770088,276.128113 
	C31.336973,269.493469 25.715733,261.876678 25.107346,252.186508 
	C24.479788,242.190994 30.325680,234.690933 36.675434,227.935898 
	C53.046883,210.519531 73.620186,199.578735 95.581963,191.049133 
	C105.191650,187.316895 115.044899,184.211777 125.367149,180.620209 
	C126.295128,183.233551 127.041031,185.467010 127.876663,187.666367 
	C134.341446,204.681427 140.824722,221.689484 147.297638,238.701447 
	C147.705521,239.773438 148.074600,240.860168 148.676804,242.259460 
z" data-index="9" style="opacity: 1; visibility: hidden; fill: rgb(121, 40, 202); stroke: rgb(121, 40, 202);"></path>

<path fill="#4C6971" opacity="1.000000" stroke="none" d="
M367.426880,470.725037 
	C341.843384,459.149994 320.166565,442.701233 300.456421,423.198944 
	C306.892334,415.405212 313.659637,407.553680 320.040283,399.399658 
	C328.744598,388.276123 337.124268,376.898956 345.735870,365.701874 
	C346.617340,364.555725 348.070282,363.229401 349.361694,363.110260 
	C372.921173,360.936798 396.336182,357.865540 419.357574,352.269958 
	C422.611938,351.478943 423.578278,353.190125 423.957672,355.734253 
	C426.013794,369.521820 428.139099,383.300995 429.997345,397.115753 
	C432.678558,417.048706 430.789276,436.591827 423.939514,455.522430 
	C420.148865,465.998535 414.208557,474.991943 402.211365,476.843689 
	C391.475647,478.500702 381.027893,476.190186 371.023529,472.015198 
	C369.967896,471.574677 368.857391,471.265686 367.426880,470.725037 
z" data-index="11" style="opacity: 1; visibility: hidden; fill: rgb(121, 40, 202); stroke: rgb(121, 40, 202);"></path>

<path fill="#4C6971" opacity="1.000000" stroke="none" d="
M319.756897,62.743305 
	C332.384552,54.140102 344.300598,44.975750 357.271149,37.688271 
	C368.494751,31.382292 380.617157,26.595627 394.013947,25.890682 
	C409.882996,25.055651 417.493073,32.832611 422.609589,45.565235 
	C430.191284,64.432579 431.620270,84.270905 429.054657,104.382599 
	C427.043518,120.147987 424.890198,135.895233 422.807739,151.592773 
	C405.967468,148.608093 390.405365,145.688736 374.781982,143.145706 
	C366.355194,141.774063 357.806335,141.163818 349.354034,139.926575 
	C347.711700,139.686188 345.850739,138.464935 344.784790,137.138321 
	C331.908722,121.113480 319.166809,104.980850 306.379761,88.884369 
	C304.334167,86.309364 302.238739,83.773949 299.527954,80.433510 
	C306.161224,74.643303 312.832184,68.820190 319.756897,62.743305 
z" data-index="13" style="opacity: 1; visibility: hidden; fill: rgb(121, 40, 202); stroke: rgb(121, 40, 202);"></path>

<path fill="#4C6971" opacity="1.000000" stroke="none" d="
M405.296387,298.617798 
	C409.131805,308.596161 412.784363,318.230042 416.789703,328.794312 
	C399.148773,331.823700 382.359741,334.706787 364.638794,337.749939 
	C376.121826,317.662292 386.851013,298.893402 397.794922,279.748840 
	C400.253540,285.971954 402.683533,292.122620 405.296387,298.617798 
z" data-index="15" style="opacity: 1; visibility: hidden; fill: rgb(121, 40, 202); stroke: rgb(121, 40, 202);"></path>

<path fill="#4C6971" opacity="1.000000" stroke="none" d="
M314.670563,366.696198 
	C304.464874,379.592010 294.259155,392.487793 283.176270,406.492035 
	C271.722595,392.836243 261.005066,380.058136 250.287537,367.280029 
	C250.486664,366.846710 250.685776,366.413422 250.884888,365.980103 
	C271.590240,365.980103 292.295563,365.980103 313.649841,366.143677 
	C314.422729,366.436920 314.546661,366.566559 314.670563,366.696198 
z" data-index="17" style="opacity: 1; visibility: hidden; fill: rgb(121, 40, 202); stroke: rgb(121, 40, 202);"></path>

<path fill="#4C6971" opacity="1.000000" stroke="none" d="
M366.069305,166.914505 
	C382.356140,169.418747 398.643005,171.923004 415.763947,174.555511 
	C409.466125,191.462997 403.666290,207.033508 397.767120,222.870758 
	C386.903290,204.350479 376.311310,186.293671 365.705170,167.766937 
	C365.817108,167.169510 365.943207,167.042007 366.069305,166.914505 
z" data-index="19" style="opacity: 1; visibility: hidden; fill: rgb(121, 40, 202); stroke: rgb(121, 40, 202);"></path>

<path fill="#4C6971" opacity="1.000000" stroke="none" d="
M365.501617,167.488113 
	C365.061371,167.216049 364.810455,166.752899 364.559540,166.289749 
	C364.980682,166.334381 365.401794,166.378998 365.946106,166.669067 
	C365.943207,167.042007 365.817108,167.169510 365.501617,167.488113 
z" data-index="21" style="opacity: 1;"></path>
<path fill="#4C6971" opacity="1.000000" stroke="none" d="
M198.112976,167.112671 
	C198.412811,166.697464 198.898376,166.476929 199.383942,166.256378 
	C199.281204,166.615768 199.178482,166.975143 198.873138,167.515381 
	C198.546570,167.566620 198.422638,167.436981 198.112976,167.112671 
z" data-index="22"></path>
<path fill="#4C6971" opacity="1.000000" stroke="none" d="
M314.113037,366.112610 
	C314.412842,365.697418 314.898376,365.476898 315.383911,365.256348 
	C315.281189,365.615753 315.178497,365.975098 314.873169,366.515320 
	C314.546661,366.566559 314.422729,366.436920 314.113037,366.112610 
z" data-index="23"></path>

<path fill="#4C6971" opacity="1.000000" stroke="none" d="
M1067.934692,228.238098 
	C1068.756470,233.159607 1069.532227,237.662048 1070.387817,242.628052 
	C1030.354736,242.628052 990.980408,242.628052 951.325500,242.628052 
	C950.134338,235.392288 952.703613,228.926361 955.046387,222.520248 
	C962.025513,203.436188 974.595154,189.268341 994.600891,184.463501 
	C1027.030518,176.674805 1057.693848,191.660980 1067.470459,226.912674 
	C1067.558105,227.229111 1067.746948,227.517517 1067.934692,228.238098 
z" data-index="25" style="opacity: 1; visibility: hidden; fill: rgb(121, 40, 202); stroke: rgb(121, 40, 202);"></path>

<path fill="#00D8FF" opacity="1.000000" stroke="none" d="
M248.771439,212.728027 
	C257.011200,206.089737 265.778290,201.915237 276.214813,200.895752 
	C297.991211,198.768509 314.445953,207.320724 325.732880,225.462784 
	C331.610352,234.909927 333.770142,245.500458 332.305817,257.037079 
	C330.873993,268.317444 326.596588,277.981415 319.154541,286.130890 
	C312.262390,293.678223 303.366150,298.482910 293.370422,300.726837 
	C278.814240,303.994446 265.043854,301.294556 252.934601,292.836884 
	C241.186111,284.631165 233.959488,273.201691 231.946640,258.648773 
	C229.425705,240.422485 235.162445,225.362427 248.771439,212.728027 
z" data-index="27" style="opacity: 1;"></path>
</svg>