<svg version="1.1" id="Layer_1" xmlns="http://www.w3.org/2000/svg" xmlns:xlink="http://www.w3.org/1999/xlink" x="0px" y="0px" width="100%" viewBox="0 0 320 149" enable-background="new 0 0 320 149" xml:space="preserve">

<path fill="#007AF4" opacity="1.000000" stroke="none" d="
M35.848465,81.673813 
	C31.304752,86.545509 32.447479,91.000343 38.330887,93.096619 
	C42.843006,94.704292 48.128155,95.257225 49.957031,100.871445 
	C50.404858,102.246162 50.471790,103.765594 51.043732,105.074333 
	C51.865440,106.954605 52.608860,109.129524 54.059402,110.423386 
	C57.710312,113.679962 58.533318,117.272133 56.401230,122.187210 
	C54.550888,126.452789 50.918648,127.344315 47.075256,126.850395 
	C42.088223,126.209503 39.764847,123.167854 40.122272,117.845963 
	C40.281769,115.471161 41.161457,112.580017 42.767075,110.979080 
	C46.677620,107.079948 47.059750,104.822685 42.667461,101.314713 
	C41.124619,100.082497 38.927208,99.459663 36.928028,99.051224 
	C32.264908,98.098549 27.724155,92.968925 27.018328,87.459114 
	C26.525360,83.610931 29.474472,77.502312 33.452976,76.390556 
	C39.361328,74.739510 45.569168,74.189377 51.605778,72.956413 
	C54.861683,72.291397 58.368355,71.737709 61.102772,70.059715 
	C62.711819,69.072311 64.153519,65.639870 63.633690,63.924282 
	C63.030205,61.932606 60.380898,60.292915 58.280716,59.094093 
	C55.936920,57.756210 52.972363,57.466984 50.705544,56.041462 
	C46.487667,53.388969 46.424816,48.950596 45.634911,44.407276 
	C45.004963,40.784012 40.119473,37.908546 39.465870,34.279209 
	C38.833149,30.765842 41.095001,26.397818 45.537590,25.285887 
	C49.540768,24.283936 53.569706,24.703821 55.936573,28.859573 
	C58.192116,32.819855 58.457981,36.756905 55.112339,40.387859 
	C53.405376,42.240383 49.524925,42.777679 51.328236,46.768383 
	C52.952293,50.362404 54.854752,52.892002 59.534752,53.191559 
	C65.346390,53.563545 70.032509,59.754585 69.996605,65.548012 
	C69.956009,72.100609 64.948944,77.072250 57.814606,78.030067 
	C50.566742,79.003113 43.356678,80.257668 35.848465,81.673813 
z" data-index="1" style="opacity: 1; visibility: visible; fill: rgb(0, 122, 244); stroke: rgb(0, 122, 244);"></path>
<path fill="#007AF4" opacity="1.000000" stroke="none" d="
M165.833344,54.987957 
	C165.886292,55.148224 165.939240,55.308495 165.766388,55.824913 
	C165.027054,56.787376 164.513535,57.393692 163.991135,58.279392 
	C163.974869,58.744984 163.967484,58.931187 163.496979,59.067799 
	C158.700638,59.012165 154.367279,58.981380 150.034225,59.006504 
	C144.882156,59.036377 141.258102,62.526836 141.019104,67.743973 
	C140.914856,70.019730 141.001587,72.304230 141.001587,74.999969 
	C147.791977,74.999969 154.088577,75.011230 160.385132,74.997025 
	C167.708176,74.980507 171.160309,70.183052 169.102020,62.809601 
	C169.845901,61.299160 170.443893,60.092014 171.041885,58.884865 
	C175.018021,60.953335 176.494125,66.788063 174.388321,72.112648 
	C172.040848,78.048309 168.043488,80.895035 161.591095,80.980064 
	C154.947617,81.067604 148.302078,80.999496 140.696991,80.999496 
	C141.139023,84.504333 141.256973,87.711517 142.000793,90.766296 
	C142.945786,94.647346 145.762589,96.135681 149.769897,96.046051 
	C157.055222,95.883125 164.346802,95.999817 171.810287,95.999817 
	C171.810287,98.124352 171.810287,99.740746 171.810287,101.923752 
	C163.531204,101.923752 155.195709,102.546097 147.003067,101.731529 
	C140.156479,101.050797 135.675797,96.080086 135.300125,89.214172 
	C134.851059,81.006081 135.397476,72.715508 135.949097,64.489929 
	C136.359802,58.365665 140.342438,54.335373 146.114731,53.612900 
	C152.061905,52.868542 158.200745,53.655537 164.762421,54.117561 
	C165.442673,54.653328 165.630753,54.828442 165.833344,54.987957 
z" data-index="2" style="opacity: 1; visibility: visible; fill: rgb(0, 122, 244); stroke: rgb(0, 122, 244);"></path>
<path fill="#007AF4" opacity="1.000000" stroke="none" d="
M230.000061,88.663857 
	C230.000000,81.549713 230.317749,74.877754 229.921371,68.248497 
	C229.399857,59.526302 233.885376,54.857403 241.548676,53.402927 
	C246.994843,52.369263 252.916962,52.459793 258.400177,53.387371 
	C264.079803,54.348171 268.906769,57.678272 269.058258,64.408287 
	C269.264191,73.554153 269.863220,82.796387 268.829865,91.829842 
	C268.077362,98.408089 262.386414,101.842094 255.692520,101.983147 
	C251.536270,102.070740 247.374313,102.088326 243.219116,101.978729 
	C236.806107,101.809578 229.795303,96.987816 230.000061,88.663857 
M262.097443,62.498707 
	C258.054352,58.440723 243.089249,57.235920 238.818405,60.826416 
	C237.535141,61.905262 236.099060,63.673386 236.032639,65.182938 
	C235.680984,73.173950 235.269730,81.217278 235.841904,89.173233 
	C236.181244,93.891533 239.696152,96.445343 244.887894,96.047379 
	C248.192902,95.794029 251.533264,96.018036 254.857544,95.996010 
	C261.108887,95.954582 263.953857,93.204353 263.991028,87.090950 
	C264.030426,80.608528 264.082062,74.123863 263.938782,67.644371 
	C263.905182,66.124863 263.108856,64.622223 262.097443,62.498707 
z" data-index="3" style="opacity: 1; visibility: visible; fill: rgb(0, 122, 244); stroke: rgb(0, 122, 244);"></path>
<path fill="#007AF4" opacity="1.000000" stroke="none" d="
M221.077286,63.161301 
	C221.518982,65.454201 221.897522,67.339844 222.361526,69.651268 
	C220.122665,69.651268 218.384491,69.651268 216.241531,69.651268 
	C216.393326,65.240463 215.082458,61.318043 210.191803,60.013721 
	C203.915939,58.339973 197.425507,57.641960 191.673294,61.166290 
	C189.759491,62.338856 188.337662,65.638504 188.163254,68.071289 
	C187.688416,74.694702 188.148239,81.378967 187.948456,88.030434 
	C187.813385,92.527481 190.085220,95.677376 193.970413,96.243050 
	C199.244415,97.010948 204.789566,96.947502 210.085251,96.241646 
	C215.231140,95.555748 216.526779,91.302971 216.025452,86.289719 
	C217.987640,86.289719 219.726425,86.289719 221.466827,86.289719 
	C222.941986,95.595024 217.548019,101.976929 208.247330,101.998283 
	C203.919998,102.008224 199.592529,102.018272 195.265289,101.995895 
	C187.663712,101.956573 182.247192,96.854065 182.044312,89.162910 
	C181.846863,81.678474 181.792084,74.177101 182.064377,66.697357 
	C182.309998,59.949680 188.008652,53.436794 195.416550,53.943729 
	C199.889389,54.249813 204.400406,53.978348 208.894028,54.005344 
	C215.123383,54.042774 218.651871,56.607040 221.077286,63.161301 
z" data-index="4" style="opacity: 1; visibility: visible; fill: rgb(0, 122, 244); stroke: rgb(0, 122, 244);"></path>
<path fill="#007AF4" opacity="1.000000" stroke="none" d="
M118.885201,89.042175 
	C117.638443,87.906952 116.391685,86.771721 115.156883,85.072067 
	C112.576538,80.633514 106.725754,81.327957 103.999626,85.833336 
	C100.833191,86.561295 97.579010,87.046745 94.546165,88.143959 
	C93.429611,88.547905 92.271324,90.327461 92.116676,91.599289 
	C91.757439,94.553650 92.151604,97.594055 91.897224,100.570251 
	C91.824493,101.421295 90.576515,102.171883 89.433823,102.442879 
	C89.332512,91.998871 89.832611,82.080956 89.859436,72.161774 
	C89.864983,70.110527 88.110146,68.054512 87.166656,66.000694 
	C87.249237,61.335892 85.234344,55.993206 91.853104,53.525478 
	C99.635971,53.961742 106.850761,54.143929 114.066673,54.249161 
	C114.372200,54.253616 114.688141,53.543758 114.999222,53.166664 
	C116.115196,53.394032 117.231178,53.621399 118.666077,54.354080 
	C118.657104,56.184048 118.329208,57.508690 117.664413,58.813095 
	C110.386307,58.529858 103.444672,58.111908 96.504211,58.130650 
	C95.063698,58.134544 92.394279,59.743874 92.383728,60.638004 
	C92.296257,68.051048 92.700623,75.469894 93.143990,83.017136 
	C93.887886,82.820419 94.444038,82.493538 95.402153,82.095184 
	C102.521469,80.311493 109.238815,78.599289 116.227432,77.072403 
	C120.231636,77.460350 123.203377,76.889351 121.941765,71.587608 
	C122.387962,69.811172 122.777313,68.405197 123.431068,66.860352 
	C125.812775,64.156357 123.738754,63.653461 121.628738,62.953476 
	C120.772461,62.196373 120.172585,61.527920 119.845352,60.565529 
	C121.078659,59.847725 122.039330,59.423862 123.276474,59.183090 
	C124.406517,59.563057 125.260094,59.759937 126.113663,59.956818 
	C130.647858,67.400200 128.653183,74.599602 119.925140,81.794609 
	C121.888725,84.299736 123.859596,86.814163 125.686310,89.723244 
	C125.028107,90.411934 124.514053,90.705971 123.677032,90.880310 
	C121.864449,90.187805 120.374825,89.614990 118.885201,89.042175 
z" data-index="5" style="opacity: 1; visibility: visible; fill: rgb(0, 122, 244); stroke: rgb(0, 122, 244);"></path>
<path fill="#007AF4" opacity="1.000000" stroke="none" d="
M297.990448,98.691566 
	C296.346283,100.009613 294.709106,100.857811 292.372620,102.068321 
	C292.372620,81.715897 292.372620,62.579033 292.372620,43.222305 
	C294.064178,43.222305 295.673615,43.222305 297.997437,43.222305 
	C297.997437,61.506397 297.997437,79.864059 297.990448,98.691566 
z" data-index="6" style="opacity: 1; visibility: visible; fill: rgb(0, 122, 244); stroke: rgb(0, 122, 244);"></path>
<path fill="#007AF4" opacity="1.000000" stroke="none" d="
M283.611084,53.531708 
	C283.890900,69.461052 283.890900,85.018005 283.890900,100.783600 
	C281.925476,100.783600 280.315277,100.783600 278.351746,100.783600 
	C278.351746,85.030922 278.351746,69.218437 278.351746,53.159325 
	C280.102417,53.159325 281.716858,53.159325 283.611084,53.531708 
z" data-index="7" style="opacity: 1; visibility: visible; fill: rgb(0, 122, 244); stroke: rgb(0, 122, 244);"></path>
<path fill="#007AF4" opacity="1.000000" stroke="none" d="
M28.010586,51.064301 
	C30.176985,48.015617 33.366028,48.121349 33.680908,51.061543 
	C34.316906,57.000259 38.016224,60.408184 41.646378,64.199089 
	C43.104744,65.722031 44.261353,67.533920 46.274288,70.148010 
	C43.231575,70.148010 39.935558,71.114113 38.873940,69.983032 
	C33.920650,64.705666 28.118855,59.689411 28.010586,51.064301 
z" data-index="8" style="opacity: 1; visibility: visible; fill: rgb(0, 122, 244); stroke: rgb(0, 122, 244);"></path>
<path fill="#007AF4" opacity="1.000000" stroke="none" d="
M54.711708,87.215431 
	C53.912697,85.204849 53.379379,83.448746 52.846058,81.692642 
	C54.693459,82.101181 57.054161,81.926804 58.297348,83.021515 
	C63.087532,87.239616 67.619217,91.782814 68.016273,98.807320 
	C68.197525,102.013954 67.031754,103.556961 65.249146,103.168350 
	C61.393074,97.275063 58.185238,92.372482 54.711708,87.215431 
z" data-index="9" style="opacity: 1; visibility: visible; fill: rgb(0, 122, 244); stroke: rgb(0, 122, 244);"></path>
<path fill="#007AF4" opacity="1.000000" stroke="none" d="
M86.964371,66.379829 
	C88.110146,68.054512 89.864983,70.110527 89.859436,72.161774 
	C89.832611,82.080956 89.332512,91.998871 89.000305,102.375282 
	C88.011932,102.375076 86.158203,101.910667 86.161407,101.459465 
	C86.243599,89.891792 86.519722,78.325500 86.964371,66.379829 
z" data-index="10" style="opacity: 1; visibility: visible; fill: rgb(0, 122, 244); stroke: rgb(0, 122, 244);"></path>
<path fill="#007AF4" opacity="1.000000" stroke="none" d="
M114.620148,52.964394 
	C114.688141,53.543758 114.372200,54.253616 114.066673,54.249161 
	C106.850761,54.143929 99.635971,53.961742 92.210579,53.480156 
	C99.413818,53.031818 106.827446,52.896973 114.620148,52.964394 
z" data-index="11" style="opacity: 1; visibility: visible; fill: rgb(0, 122, 244); stroke: rgb(0, 122, 244);"></path>
<path fill="#007AF4" opacity="1.000000" stroke="none" d="
M124.000000,91.000000 
	C124.514053,90.705971 125.028107,90.411934 125.829956,90.039162 
	C127.343887,93.995857 128.570007,98.031296 129.984634,102.687195 
	C127.025497,102.687195 125.303093,102.687195 122.983406,102.687195 
	C122.983406,100.775856 122.983406,98.854065 123.144951,96.180260 
	C123.537659,93.952171 123.768829,92.476082 124.000000,91.000000 
z" data-index="12" style="opacity: 1; visibility: visible; fill: rgb(0, 122, 244); stroke: rgb(0, 122, 244);"></path>
<path fill="#007AF4" opacity="1.000000" stroke="none" d="
M280.106110,43.011589 
	C285.687256,42.458206 283.596985,46.072216 283.975708,48.716396 
	C281.973114,48.716396 280.265564,48.716396 277.361328,48.716396 
	C278.233276,46.557243 278.947571,44.788376 280.106110,43.011589 
z" data-index="13" style="opacity: 1; visibility: visible; fill: rgb(0, 122, 244); stroke: rgb(0, 122, 244);"></path>
<path fill="#007AF4" opacity="1.000000" stroke="none" d="
M104.389137,85.893379 
	C106.725754,81.327957 112.576538,80.633514 115.030647,84.778152 
	C111.521187,85.350243 108.149918,85.651833 104.389137,85.893379 
z" data-index="14" style="opacity: 1; visibility: visible; fill: rgb(0, 122, 244); stroke: rgb(0, 122, 244);"></path>
<path fill="#007AF4" opacity="1.000000" stroke="none" d="
M123.677032,90.880310 
	C123.768829,92.476082 123.537659,93.952171 123.099541,95.738510 
	C121.593475,93.947311 120.294365,91.845848 118.940231,89.393280 
	C120.374825,89.614990 121.864449,90.187805 123.677032,90.880310 
z" data-index="15" style="opacity: 1; visibility: visible; fill: rgb(0, 122, 244); stroke: rgb(0, 122, 244);"></path>
<path fill="#007AF4" opacity="1.000000" stroke="none" d="
M118.001305,58.833336 
	C118.329208,57.508690 118.657104,56.184048 118.992317,54.513035 
	C120.255959,55.198078 121.512291,56.229488 122.894821,57.851830 
	C123.014008,58.628506 123.007004,58.814251 123.000000,59.000000 
	C122.039330,59.423862 121.078659,59.847725 119.602509,60.329910 
	C118.725128,59.869930 118.363220,59.351631 118.001305,58.833336 
z" data-index="16" style="opacity: 1; visibility: visible; fill: rgb(0, 122, 244); stroke: rgb(0, 122, 244);"></path>
<path fill="#007AF4" opacity="1.000000" stroke="none" d="
M163.960098,59.117393 
	C163.967484,58.931187 163.974869,58.744984 164.312927,58.210823 
	C165.466003,57.560013 166.288422,57.257156 167.110825,56.954300 
	C168.005234,57.084232 168.899628,57.214165 169.672714,57.858276 
	C169.020676,59.620430 168.489960,60.868416 167.661774,61.986092 
	C166.229568,60.942986 165.094833,60.030190 163.960098,59.117393 
z" data-index="17" style="opacity: 1; visibility: visible; fill: rgb(0, 122, 244); stroke: rgb(0, 122, 244);"></path>
<path fill="#007AF4" opacity="1.000000" stroke="none" d="
M167.959229,62.116402 
	C168.489960,60.868416 169.020676,59.620430 169.829865,58.162262 
	C170.453171,57.977352 170.718750,58.135609 170.973480,58.655853 
	C170.443893,60.092014 169.845901,61.299160 168.864273,62.725002 
	C168.306824,62.667931 168.133026,62.392166 167.959229,62.116402 
z" data-index="18" style="opacity: 1; visibility: visible; fill: rgb(0, 122, 244); stroke: rgb(0, 122, 244);"></path>
<path fill="#007AF4" opacity="1.000000" stroke="none" d="
M123.276474,59.183090 
	C123.007004,58.814251 123.014008,58.628506 123.031738,58.164146 
	C123.976692,58.374565 124.910912,58.863594 125.979401,59.654720 
	C125.260094,59.759937 124.406517,59.563057 123.276474,59.183090 
z" data-index="19" style="opacity: 1; visibility: visible; fill: rgb(0, 122, 244); stroke: rgb(0, 122, 244);"></path>
<path fill="#007AF4" opacity="1.000000" stroke="none" d="
M167.026825,56.716850 
	C166.288422,57.257156 165.466003,57.560013 164.321808,57.931442 
	C164.513535,57.393692 165.027054,56.787376 165.828674,56.070312 
	C166.392136,56.132843 166.667480,56.306122 167.026825,56.716850 
z" data-index="20" style="opacity: 1; visibility: visible; fill: rgb(0, 122, 244); stroke: rgb(0, 122, 244);"></path>
<path fill="#007AF4" opacity="1.000000" stroke="none" d="
M165.862122,54.733643 
	C165.630753,54.828442 165.442673,54.653328 165.145370,54.314640 
	C165.311371,54.270885 165.601120,54.375103 165.862122,54.733643 
z" data-index="21" style="opacity: 1; visibility: visible; fill: rgb(0, 122, 244); stroke: rgb(0, 122, 244);"></path>

<path fill="#000000" opacity="1.000000" stroke="none" d="
M262.380432,62.805264 
	C263.108856,64.622223 263.905182,66.124863 263.938782,67.644371 
	C264.082062,74.123863 264.030426,80.608528 263.991028,87.090950 
	C263.953857,93.204353 261.108887,95.954582 254.857544,95.996010 
	C251.533264,96.018036 248.192902,95.794029 244.887894,96.047379 
	C239.696152,96.445343 236.181244,93.891533 235.841904,89.173233 
	C235.269730,81.217278 235.680984,73.173950 236.032639,65.182938 
	C236.099060,63.673386 237.535141,61.905262 238.818405,60.826416 
	C243.089249,57.235920 258.054352,58.440723 262.380432,62.805264 
z" data-index="23" style="opacity: 1; visibility: hidden;"></path>

<path fill="#007AF4" opacity="1.000000" stroke="none" d="
M116.227432,77.072403 
	C117.731857,75.330330 119.507553,73.773590 121.584076,72.087463 
	C123.203377,76.889351 120.231636,77.460350 116.227432,77.072403 
z" data-index="25" style="opacity: 1; visibility: visible; fill: rgb(0, 122, 244); stroke: rgb(0, 122, 244);"></path>
<path fill="#007AF4" opacity="1.000000" stroke="none" d="
M123.431068,66.860352 
	C122.772240,65.917389 122.377808,64.835556 121.934258,63.397919 
	C123.738754,63.653461 125.812775,64.156357 123.431068,66.860352 
z" data-index="26" style="opacity: 1; visibility: visible; fill: rgb(0, 122, 244); stroke: rgb(0, 122, 244);"></path>
<path fill="#007AF4" opacity="1.000000" stroke="none" d="
M93.143997,83.017136 
	C93.435753,82.602623 93.915253,82.318260 94.697472,82.100281 
	C94.444038,82.493538 93.887886,82.820419 93.143997,83.017136 
z" data-index="27" style="opacity: 1;"></path>
</svg>