<svg version="1.1" id="Layer_1" xmlns="http://www.w3.org/2000/svg" xmlns:xlink="http://www.w3.org/1999/xlink" x="0px" y="0px" width="100%" viewBox="0 0 900 500" enable-background="new 0 0 900 500" xml:space="preserve">

<path fill="#0CB7D5" opacity="1.000000" stroke="none" d="
M54.501541,251.250183 
	C68.613655,249.622131 81.907005,250.595306 93.457504,258.971161 
	C98.667259,262.749054 103.337044,267.338043 107.936951,271.878052 
	C122.231842,285.986786 135.546646,286.299622 150.131531,272.599426 
	C150.955536,271.825409 151.504364,270.758453 152.967072,268.747589 
	C149.719833,286.384186 136.872025,300.276672 119.527695,303.018097 
	C100.177193,306.076660 83.817345,301.176361 70.167183,286.846680 
	C65.641037,282.095215 60.670761,277.146484 54.905300,274.335052 
	C45.218674,269.611542 35.489117,271.337494 27.125881,278.561798 
	C25.135508,280.281158 23.305042,282.185608 20.575663,284.793579 
	C25.752649,266.487885 35.993656,254.948166 54.501541,251.250183 
z" data-index="1" style="opacity: 1;"></path>
<path fill="#0CB7D5" opacity="1.000000" stroke="none" d="
M136.519623,204.423599 
	C141.798248,209.006653 147.387589,212.860764 151.635620,217.855637 
	C161.440552,229.384476 179.779144,234.886612 193.844604,220.060272 
	C194.595947,219.268295 195.577057,218.694290 197.584824,217.142792 
	C193.389542,230.794952 187.322021,241.526871 174.683395,246.249405 
	C153.226456,254.267029 133.345764,252.025818 116.464516,235.037155 
	C112.485985,231.033295 108.563416,226.852661 104.042419,223.533340 
	C93.562393,215.838898 79.395836,217.363724 69.926590,226.782776 
	C68.800148,227.903244 68.085876,229.438065 66.767601,230.364700 
	C71.413239,196.634293 112.365578,189.810104 136.519623,204.423599 
z" data-index="2" style="opacity: 1;"></path>
<path fill="#030303" opacity="1.000000" stroke="none" d="
M469.938049,265.042725 
	C467.573456,272.705078 465.155914,279.938477 463.116486,287.276978 
	C462.180328,290.645477 460.783722,292.061981 457.006927,291.931396 
	C448.327850,291.631439 448.391449,291.845215 445.789062,283.482635 
	C440.667419,267.024475 435.452606,250.595352 430.292603,234.149094 
	C429.800751,232.581497 429.423828,230.977829 428.932404,229.165344 
	C433.659332,229.165344 438.116974,229.165344 442.906158,229.165344 
	C446.857361,243.009384 450.829895,256.928284 455.145020,272.047455 
	C459.796539,256.888428 464.020477,243.122803 468.294586,229.193604 
	C472.494476,229.193604 476.633545,229.193604 481.312592,229.193604 
	C485.476074,242.873901 489.701294,256.757172 494.350830,272.034607 
	C498.648407,256.954346 502.580780,243.155563 506.551361,229.222748 
	C511.269012,229.222748 515.721680,229.222748 520.736145,229.222748 
	C514.175659,250.114090 507.651367,270.889954 501.122833,291.679413 
	C496.587860,291.679413 492.460083,291.679413 487.928558,291.679413 
	C483.709320,278.168884 479.474792,264.609467 474.841278,249.772369 
	C472.978607,255.546417 471.509125,260.101562 469.938049,265.042725 
z" data-index="3" style="opacity: 1; visibility: visible; fill: rgb(255, 255, 255); stroke: rgb(255, 255, 255);"></path>
<path fill="#050505" opacity="1.000000" stroke="none" d="
M694.828308,229.000092 
	C694.805542,249.993607 694.783325,270.487122 694.748474,290.980591 
	C694.748230,291.110413 694.573181,291.239868 694.317444,291.594666 
	C690.241638,291.594666 686.003784,291.594666 681.448120,291.594666 
	C681.274902,289.013580 681.115479,286.637665 680.906006,283.515472 
	C674.406677,290.900269 666.611206,293.905029 657.562683,293.344055 
	C649.458069,292.841614 642.425537,289.673004 636.980957,283.546692 
	C624.385559,269.374298 625.294922,248.617340 638.785339,235.416870 
	C647.578918,226.812286 668.488831,222.917999 680.958618,237.183014 
	C680.958618,225.957138 680.958618,215.282501 680.958618,204.302963 
	C685.691589,204.302963 689.940308,204.302963 694.828308,204.302963 
	C694.828308,212.302032 694.828308,220.401062 694.828308,229.000092 
M678.196777,271.500641 
	C678.810730,270.338593 679.540833,269.222321 680.020020,268.007141 
	C683.386475,259.469421 680.514160,249.238068 673.317017,243.948349 
	C666.430847,238.887161 656.266235,239.001984 649.672668,244.087540 
	C642.706177,249.460770 640.610718,256.629059 642.357239,264.878967 
	C643.955322,272.427856 648.643738,277.812073 656.217957,279.642303 
	C664.787292,281.713043 672.291992,279.467834 678.196777,271.500641 
z" data-index="4" style="visibility: visible; fill: rgb(255, 255, 255); stroke: rgb(255, 255, 255); opacity: 1;"></path>
<path fill="#020202" opacity="1.000000" stroke="none" d="
M342.021637,233.166153 
	C343.372223,234.434219 344.412567,235.459717 346.253693,237.274551 
	C346.452972,234.121399 346.598969,231.811127 346.760529,229.254547 
	C351.138550,229.254547 355.364929,229.254547 359.826935,229.254547 
	C359.826935,250.019653 359.826935,270.710358 359.826935,291.610107 
	C355.482056,291.610107 351.372498,291.610107 346.813141,291.610107 
	C346.679535,289.202057 346.544647,286.771484 346.390656,283.996643 
	C343.565887,286.137482 341.206818,288.419189 338.432312,289.945770 
	C323.445160,298.191895 304.301849,291.036499 296.459259,274.415894 
	C286.539917,253.394073 300.608185,228.989807 323.505524,227.669876 
	C330.111176,227.289062 336.368958,228.658508 342.021637,233.166153 
M314.991760,276.616852 
	C315.975952,277.237762 316.894501,278.018616 317.954865,278.453979 
	C325.589569,281.588318 332.951599,281.172424 339.464081,275.870209 
	C346.058868,270.501038 347.758209,263.205505 345.882111,255.213379 
	C344.169983,247.919632 339.659027,242.803436 332.166595,240.976822 
	C322.541962,238.630386 313.394958,242.527008 309.217407,250.503433 
	C304.605469,259.309387 306.639954,269.358704 314.991760,276.616852 
z" data-index="5" style="opacity: 1; visibility: visible; fill: rgb(255, 255, 255); stroke: rgb(255, 255, 255);"></path>
<path fill="#060606" opacity="1.000000" stroke="none" d="
M560.171021,283.917236 
	C560.171021,265.484802 560.171021,247.539825 560.171021,229.412170 
	C564.792847,229.412170 569.032532,229.412170 573.550110,229.412170 
	C573.710083,231.573090 573.854004,233.517960 574.042847,236.069336 
	C578.920288,230.832764 584.524719,227.958557 591.470581,227.573395 
	C605.303406,226.806335 616.101318,235.348221 616.794067,249.233505 
	C617.489624,263.174713 616.947021,277.177704 616.947021,291.491241 
	C612.722961,291.491241 608.507324,291.491241 603.804016,291.491241 
	C603.804016,283.796387 603.804443,276.184113 603.803894,268.571838 
	C603.803650,264.241852 603.909241,259.908600 603.779358,255.582474 
	C603.467834,245.197632 598.788025,240.097672 589.667542,240.027008 
	C580.387817,239.955093 574.211243,245.832840 573.921997,255.657730 
	C573.628174,265.641266 573.838867,275.639648 573.829224,285.631531 
	C573.827515,287.443390 573.828979,289.255249 573.828979,291.447144 
	C569.291870,291.447144 565.056763,291.447144 560.171021,291.447144 
	C560.171021,289.255096 560.171021,286.829895 560.171021,283.917236 
z" data-index="6" style="visibility: visible; fill: rgb(255, 255, 255); stroke: rgb(255, 255, 255); opacity: 1;"></path>
<path fill="#030303" opacity="1.000000" stroke="none" d="
M730.240112,291.991608 
	C707.810120,285.075836 701.570312,259.166870 712.301331,242.289597 
	C725.548340,221.455368 758.386841,223.566193 767.991516,243.719223 
	C767.485291,244.084808 766.984741,244.514328 766.423950,244.839996 
	C763.284302,246.663116 760.129944,248.461121 756.998291,250.257584 
	C748.401184,237.885681 733.996094,239.243408 726.265869,246.720917 
	C719.165710,253.588989 719.137390,267.174347 726.120361,274.380981 
	C734.799194,283.337646 746.502075,282.129944 757.366821,271.038849 
	C760.896790,272.994263 764.468689,274.972961 768.010193,276.934784 
	C763.235413,289.130981 745.613281,296.512848 730.240112,291.991608 
z" data-index="7" style="visibility: visible; fill: rgb(255, 255, 255); stroke: rgb(255, 255, 255); opacity: 1;"></path>
<path fill="#030303" opacity="1.000000" stroke="none" d="
M792.975098,241.884491 
	C789.750488,246.978851 790.410034,249.828659 795.528259,251.849457 
	C801.372192,254.156799 807.525879,255.687057 813.345886,258.046112 
	C823.069397,261.987518 827.243164,272.596924 822.928650,281.858185 
	C822.106323,283.623383 820.875549,285.290070 819.519226,286.700134 
	C809.891479,296.709167 782.612305,296.843597 774.822815,278.746368 
	C778.376587,276.601776 781.999023,274.415710 785.998108,272.002380 
	C789.455994,279.256744 795.414978,281.844330 803.086304,280.948883 
	C806.839966,280.510773 810.026917,279.000366 810.614990,274.930878 
	C811.168457,271.101196 808.245361,269.304474 805.197937,268.192047 
	C799.768555,266.210144 794.188599,264.637970 788.772461,262.623260 
	C781.196594,259.805206 776.774963,254.529068 777.008911,246.101837 
	C777.233459,238.013855 781.803162,232.684402 788.797363,229.722275 
	C800.293396,224.853638 816.305664,227.558670 823.065918,240.736023 
	C819.498657,242.731827 815.919434,244.734314 812.352417,246.729980 
	C805.404297,239.285004 800.693726,238.036163 792.975098,241.884491 
z" data-index="8" style="visibility: visible; fill: rgb(255, 255, 255); stroke: rgb(255, 255, 255); opacity: 1;"></path>
<path fill="#030303" opacity="1.000000" stroke="none" d="
M865.575073,292.774414 
	C852.339844,294.621643 840.928467,292.633850 833.362854,280.657745 
	C833.104248,280.248505 832.985657,279.750793 832.545593,278.658203 
	C836.124268,276.575867 839.760803,274.459900 843.858215,272.075745 
	C846.939880,278.568573 852.182251,281.603851 859.433777,281.007080 
	C863.612549,280.663177 867.631409,279.916718 868.319702,274.881927 
	C868.982971,270.030243 864.889709,268.894806 861.572693,267.629486 
	C857.394714,266.035828 853.014038,264.983093 848.776611,263.533905 
	C838.777893,260.114441 834.817383,255.042862 834.872314,245.951981 
	C834.919556,238.138580 840.187927,231.751083 849.068787,228.739761 
	C861.324646,224.584030 875.700378,230.009598 880.641785,240.837234 
	C877.053711,242.832397 873.448669,244.836975 869.647888,246.950394 
	C866.325134,241.045517 861.182800,238.713547 854.955566,240.175156 
	C852.656799,240.714722 849.945984,243.015991 849.048340,245.186020 
	C847.691223,248.466537 850.265808,250.787491 853.343201,251.901993 
	C857.540100,253.421875 861.822815,254.704010 866.062927,256.105530 
	C877.661987,259.939484 882.307739,265.237488 882.347717,274.656708 
	C882.384521,283.321045 877.369995,288.834839 865.575073,292.774414 
z" data-index="9" style="visibility: visible; fill: rgb(255, 255, 255); stroke: rgb(255, 255, 255); opacity: 1;"></path>
<path fill="#040404" opacity="1.000000" stroke="none" d="
M276.256775,279.137451 
	C280.119263,279.534729 283.571503,279.836975 287.170898,280.152100 
	C287.170898,283.953217 287.170898,287.721039 287.170898,291.682556 
	C281.644012,291.682556 276.290283,292.284149 271.131683,291.537506 
	C263.914948,290.492950 259.271149,285.368042 258.966492,277.819550 
	C258.497925,266.210480 258.843231,254.568558 258.843231,242.402466 
	C254.474396,242.402466 250.936493,242.402466 247.166733,242.402466 
	C247.166733,237.795731 247.166733,233.726120 247.166733,229.285309 
	C250.749161,229.285309 254.180084,229.285309 258.176117,229.285309 
	C258.176117,224.668091 258.407043,220.384171 258.100525,216.139084 
	C257.869598,212.940765 259.248077,211.659927 262.084473,211.039612 
	C265.282501,210.340210 268.431427,209.416260 272.062378,208.469910 
	C272.062378,215.589401 272.062378,222.195435 272.062378,229.097900 
	C277.186554,229.097900 281.962616,229.097900 287.082367,229.097900 
	C287.082367,233.468597 287.082367,237.536499 287.082367,241.863235 
	C282.250702,241.863235 277.468567,241.863235 272.116608,241.863235 
	C272.116608,253.007294 271.979126,263.914246 272.281891,274.808960 
	C272.321991,276.252014 274.603210,277.632812 276.256775,279.137451 
z" data-index="10" style="opacity: 1; visibility: visible; fill: rgb(255, 255, 255); stroke: rgb(255, 255, 255);"></path>
<path fill="#060606" opacity="1.000000" stroke="none" d="
M411.026184,200.169418 
	C413.651917,200.169418 415.810242,200.169418 418.398224,200.169418 
	C418.398224,230.582230 418.398224,260.782715 418.398224,291.407715 
	C414.251007,291.407715 409.886749,291.407715 405.249115,291.407715 
	C405.249115,261.225800 405.249115,230.996689 405.249115,200.169418 
	C407.025482,200.169418 408.792145,200.169418 411.026184,200.169418 
z" data-index="11" style="opacity: 1; visibility: visible; fill: rgb(255, 255, 255); stroke: rgb(255, 255, 255);"></path>
<path fill="#010101" opacity="1.000000" stroke="none" d="
M544.422852,270.000061 
	C544.422791,277.453796 544.422791,284.407562 544.422791,291.583893 
	C539.839905,291.583893 535.749634,291.583893 531.294556,291.583893 
	C531.294556,270.929871 531.294556,250.249725 531.294556,229.283096 
	C535.394348,229.283096 539.643127,229.283096 544.422852,229.283096 
	C544.422852,242.649445 544.422852,256.074768 544.422852,270.000061 
z" data-index="12" style="visibility: visible; fill: rgb(255, 255, 255); stroke: rgb(255, 255, 255); opacity: 1;"></path>
<path fill="#010101" opacity="1.000000" stroke="none" d="
M385.661133,291.816711 
	C382.387146,291.816772 379.570587,291.816772 376.377167,291.816772 
	C376.377167,270.988586 376.377167,250.307892 376.377167,229.311951 
	C380.394867,229.311951 384.631256,229.311951 389.422852,229.311951 
	C389.422852,232.655762 389.422821,236.096802 389.422821,239.537842 
	C389.422821,255.501175 389.419281,271.464508 389.426727,287.427826 
	C389.427826,289.742126 389.936707,292.399078 385.661133,291.816711 
z" data-index="13" style="opacity: 1; visibility: visible; fill: rgb(255, 255, 255); stroke: rgb(255, 255, 255);"></path>
<path fill="#040404" opacity="1.000000" stroke="none" d="
M531.328064,216.570724 
	C528.336731,212.554153 528.338867,208.772629 531.447937,205.385315 
	C534.190796,202.397003 537.721375,201.801178 541.468262,203.498199 
	C545.117920,205.151215 546.973694,208.345062 545.987976,211.969467 
	C545.288940,214.539749 543.216309,217.258804 540.983582,218.766037 
	C537.708984,220.976608 534.305176,219.567856 531.328064,216.570724 
z" data-index="14" style="visibility: visible; fill: rgb(255, 255, 255); stroke: rgb(255, 255, 255); opacity: 1;"></path>
<path fill="#040404" opacity="1.000000" stroke="none" d="
M391.139557,210.207230 
	C391.244812,215.252090 388.926941,218.676453 384.534973,219.162643 
	C381.885254,219.455963 378.485931,218.027603 376.308868,216.273773 
	C373.532684,214.037308 372.821350,210.009979 375.198090,207.267899 
	C377.133087,205.035477 380.480133,203.069366 383.352356,202.834198 
	C387.527008,202.492432 390.299896,205.469528 391.139557,210.207230 
z" data-index="15" style="visibility: visible; fill: rgb(255, 255, 255); stroke: rgb(255, 255, 255); opacity: 1;"></path>
<path fill="#0CB7D5" opacity="1.000000" stroke="none" d="
M65.452415,231.428818 
	C65.430443,231.351639 65.474388,231.505997 65.452415,231.428818 
z" data-index="16"></path>
<path fill="#0CB7D5" opacity="1.000000" stroke="none" d="
M20.479254,285.293854 
	C20.532667,285.230988 20.425840,285.356720 20.479254,285.293854 
z" data-index="17"></path>

<path fill="#FBFBFB" opacity="1.000000" stroke="none" d="
M314.702026,276.389954 
	C306.639954,269.358704 304.605469,259.309387 309.217407,250.503433 
	C313.394958,242.527008 322.541962,238.630386 332.166595,240.976822 
	C339.659027,242.803436 344.169983,247.919632 345.882111,255.213379 
	C347.758209,263.205505 346.058868,270.501038 339.464081,275.870209 
	C332.951599,281.172424 325.589569,281.588318 317.954865,278.453979 
	C316.894501,278.018616 315.975952,277.237762 314.702026,276.389954 
z" data-index="19" style="opacity: 1; visibility: hidden;"></path>
</svg>