<svg version="1.1" id="Layer_1" xmlns="http://www.w3.org/2000/svg" xmlns:xlink="http://www.w3.org/1999/xlink" x="0px" y="0px" width="100%" viewBox="0 0 720 352" enable-background="new 0 0 720 352" xml:space="preserve">
<path fill="#000000" opacity="1.000000" stroke="none" d="
M265.190948,203.210419 
	C242.348587,225.163010 219.769913,246.879181 197.196304,268.600647 
	C171.140717,293.672668 145.090775,318.750580 119.035637,343.823090 
	C113.428757,349.218506 110.575157,348.386658 108.671471,340.689697 
	C84.673355,243.660889 60.693817,146.627502 36.711472,49.594791 
	C35.554115,44.912109 34.372211,40.234894 33.277573,35.537460 
	C31.809568,29.237780 34.149021,27.008476 40.412426,28.811668 
	C72.232567,37.972473 104.038536,47.182499 135.856644,56.350357 
	C203.333618,75.792709 270.820923,95.199280 338.278625,114.708153 
	C341.962585,115.773560 347.247375,115.360336 348.459442,119.794067 
	C349.797546,124.688988 344.483093,126.570183 341.657440,129.315598 
	C316.319916,153.933670 290.872192,178.438339 265.190948,203.210419 
M106.727592,272.038361 
	C104.694939,271.464569 102.662285,270.890778 99.548332,270.011780 
	C104.987267,292.035645 110.200523,313.145660 115.745148,335.597473 
	C132.461411,319.541199 148.199432,304.424561 164.673370,288.601044 
	C145.024811,282.984100 126.255081,277.618408 106.727592,272.038361 
M135.780151,158.467606 
	C134.310471,152.572952 132.840790,146.678284 131.061142,139.540390 
	C114.712738,155.251251 99.230919,170.129303 82.888725,185.834183 
	C104.767250,192.111115 125.349953,198.016281 147.089432,204.253311 
	C143.130096,188.239166 139.549149,173.755432 135.780151,158.467606 
M227.507797,209.143311 
	C229.244690,213.698029 229.123505,218.867386 232.143372,223.704056 
	C247.890915,208.519119 263.314697,193.646378 279.573273,177.968658 
	C257.481873,171.647751 236.850189,165.744492 215.465347,159.625732 
	C219.588379,176.491440 223.479782,192.409592 227.507797,209.143311 
M83.070534,78.551102 
	C89.969383,70.947166 96.868233,63.343235 103.862068,55.634613 
	C84.427521,50.042728 63.873096,44.128616 42.231339,37.901649 
	C47.652241,59.930187 52.740597,80.607368 58.161476,102.635796 
	C66.905312,94.174034 74.727219,86.604462 83.070534,78.551102 
M173.657196,194.158966 
	C169.250717,198.511795 164.844254,202.864639 159.712936,207.933472 
	C181.478134,214.202637 201.930634,220.093704 223.499481,226.306305 
	C218.004974,204.079498 212.844330,183.203262 207.495010,161.563766 
	C195.935165,172.695618 185.048294,183.179413 173.657196,194.158966 
M88.629097,123.037659 
	C79.789207,120.525650 70.949310,118.013649 61.299992,115.271629 
	C66.712791,137.187515 71.860756,158.031113 77.275574,179.955170 
	C93.688751,164.098557 109.180832,149.131821 125.248840,133.608688 
	C112.897583,130.036423 101.152985,126.639618 88.629097,123.037659 
M296.546539,111.138458 
	C288.988800,109.027039 281.562805,106.368805 273.222717,104.826050 
	C278.546478,126.431313 283.657715,147.174042 289.023895,168.951401 
	C305.240540,153.338058 320.729950,138.424911 337.007416,122.753014 
	C323.098877,118.738266 310.220367,115.020851 296.546539,111.138458 
M226.702606,143.202484 
	C224.217422,146.009018 220.909409,148.078369 218.640411,152.006943 
	C239.311096,157.942780 259.577850,163.762619 280.902283,169.886185 
	C275.519226,148.140991 270.441376,127.628616 265.134308,106.190353 
	C252.016846,118.819656 239.611832,130.763031 226.702606,143.202484 
M101.103218,72.605034 
	C89.284599,84.002983 77.465973,95.400940 64.749405,107.664871 
	C86.170242,113.806564 106.467278,119.626045 127.675728,125.706841 
	C122.351646,104.074585 117.298592,83.543526 112.245529,63.012466 
	C111.492424,62.539707 110.739319,62.066948 109.986206,61.594189 
	C107.193466,65.099434 104.400719,68.604675 101.103218,72.605034 
M156.645264,242.655365 
	C154.549026,234.368835 152.452789,226.082321 150.135300,216.921158 
	C134.132736,232.353714 118.912071,247.032227 102.939476,262.435883 
	C124.489830,268.604523 144.789597,274.415222 165.904556,280.459229 
	C162.659042,267.316620 159.715103,255.395157 156.645264,242.655365 
M129.164352,225.651459 
	C133.727188,221.153000 138.755417,217.103775 143.096878,211.644669 
	C122.312737,205.667892 102.024055,199.833603 80.689697,193.698608 
	C86.026215,215.254913 91.077530,235.659180 96.444336,257.337830 
	C107.923370,246.202621 118.276917,236.159164 129.164352,225.651459 
M202.005615,83.864975 
	C200.437790,83.498184 198.869965,83.131393 196.469315,82.569763 
	C201.686600,103.742279 206.745651,124.272598 212.078445,145.913849 
	C227.973114,130.608170 243.182571,115.962288 259.355194,100.388947 
	C239.628082,94.722954 221.175949,89.423157 202.005615,83.864975 
M161.724457,143.912201 
	C154.456085,141.858231 147.187714,139.804245 139.044846,137.503143 
	C144.343475,158.995361 149.368546,179.377991 154.693726,200.977921 
	C170.767105,185.512329 185.993698,170.861496 201.962219,155.496796 
	C188.003235,151.491852 175.244949,147.831390 161.724457,143.912201 
M213.593033,231.971100 
	C195.579865,226.797394 177.566681,221.623672 158.409195,216.121307 
	C163.698792,237.502548 168.728592,257.833649 174.084900,279.484528 
	C190.158142,264.010345 205.279587,249.452469 221.105774,234.216125 
	C218.074814,233.308258 216.206650,232.748672 213.593033,231.971100 
M180.105194,77.636642 
	C160.401352,71.947243 140.697510,66.257843 119.918884,60.258102 
	C125.267799,81.790154 130.309616,102.085960 135.329376,122.292969 
	C136.463043,122.114975 136.673737,122.146957 136.777359,122.056419 
	C152.065811,108.697380 166.028809,93.940887 180.924866,80.167450 
	C181.813843,79.345490 181.998306,78.505997 180.105194,77.636642 
M202.889252,143.039612 
	C198.154861,123.769852 193.420471,104.500092 188.450470,84.271339 
	C172.544418,99.584381 157.437302,114.128273 141.476181,129.494339 
	C148.303741,131.492905 153.827652,133.134247 159.365784,134.726120 
	C172.616623,138.534912 185.867905,142.342606 199.135834,146.091187 
	C201.105530,146.647690 203.794571,147.937286 202.889252,143.039612 
z" data-index="0" style="opacity: 1; visibility: visible; fill: rgb(255, 255, 255); stroke: rgb(255, 255, 255);"></path>
<path fill="#000000" opacity="1.000000" stroke="none" d="
M377.946655,255.097672 
	C377.894745,262.075714 377.922516,268.570221 377.762848,275.060089 
	C377.680206,278.419067 376.882263,281.555542 372.590912,281.608490 
	C368.251587,281.662048 367.645081,278.699554 367.494598,275.194397 
	C366.615601,254.723419 367.236084,234.246475 367.172546,213.772781 
	C367.162140,210.420898 367.866028,207.108505 372.032440,206.908249 
	C376.434814,206.696609 377.636932,209.976028 377.715393,213.571609 
	C377.866669,220.506409 377.759491,227.446823 377.759491,235.222946 
	C380.183197,233.627167 381.666626,232.611313 383.187592,231.655182 
	C396.986145,222.980698 412.670807,230.325119 413.900818,246.486740 
	C414.644257,256.254761 414.135406,266.121674 414.096375,275.943756 
	C414.082367,279.475861 412.219879,281.762909 408.600647,281.681274 
	C404.824738,281.596039 403.642273,278.969513 403.653595,275.521454 
	C403.681458,267.029999 403.696472,258.537842 403.621277,250.046844 
	C403.528931,239.616592 396.102722,234.977112 386.707031,239.547684 
	C380.496735,242.568710 376.657379,247.144165 377.946655,255.097672 
z" data-index="1" style="opacity: 1; visibility: visible; fill: rgb(255, 255, 255); stroke: rgb(255, 255, 255);"></path>
<path fill="#000000" opacity="1.000000" stroke="none" d="
M557.882874,280.194092 
	C551.597229,282.558105 545.436279,283.030579 539.312927,282.003448 
	C523.022827,279.270935 514.849792,265.089874 518.986572,247.188568 
	C521.880066,234.667450 532.008484,226.962494 543.964172,228.187500 
	C557.974548,229.623047 566.734253,238.741882 567.133240,252.306519 
	C567.271973,257.021667 565.222839,259.172760 560.111572,259.233185 
	C551.456665,259.335449 542.799500,259.229828 534.143799,259.287384 
	C529.007751,259.321503 528.284851,260.731018 530.955505,265.197845 
	C534.341553,270.861176 541.239136,273.753998 548.811523,272.405792 
	C551.736023,271.885162 554.604370,270.931702 557.420349,269.951477 
	C560.372009,268.924072 563.237000,268.604828 564.760437,271.816315 
	C566.320007,275.103851 564.156128,277.102509 561.395935,278.518829 
	C560.359924,279.050415 559.302490,279.540131 557.882874,280.194092 
M540.147095,237.459946 
	C535.328430,238.663345 531.664307,241.297424 529.842590,246.048294 
	C529.194824,247.737549 528.396851,250.282959 531.109802,250.388107 
	C539.335876,250.706955 547.582092,250.503464 555.825195,250.503464 
	C555.486389,241.900894 550.072510,237.407074 540.147095,237.459946 
z" data-index="2" style="opacity: 1; visibility: visible; fill: rgb(255, 255, 255); stroke: rgb(255, 255, 255);"></path>
<path fill="#000000" opacity="1.000000" stroke="none" d="
M475.094482,266.861298 
	C480.059753,272.380463 486.139587,273.264404 492.685394,272.304565 
	C494.806030,271.993622 496.888641,271.285645 498.926636,270.580109 
	C502.265411,269.424255 506.133942,267.495850 507.832611,272.180695 
	C509.451599,276.645813 505.410767,278.164551 502.186310,279.540558 
	C493.544342,283.228424 484.650421,283.565521 475.900696,280.305511 
	C465.232544,276.330780 461.904968,267.362061 461.065308,256.938934 
	C459.826874,241.565262 468.721008,229.590744 483.165436,228.292236 
	C497.433044,227.009644 509.494385,235.558060 510.041016,253.514130 
	C510.168762,257.711334 507.330078,259.250214 503.441681,259.248230 
	C495.282227,259.244080 487.121948,259.207275 478.963837,259.318024 
	C476.895325,259.346100 474.202484,258.263275 472.891266,260.330719 
	C471.380432,262.713043 473.880127,264.565125 475.094482,266.861298 
M493.154694,250.646942 
	C495.061554,250.417328 497.126007,251.187531 498.845337,249.829269 
	C498.615662,243.335999 494.103760,238.337891 487.708405,237.416504 
	C481.142975,236.470612 474.612183,240.349030 472.701416,246.270065 
	C471.746033,249.230682 472.604858,250.672409 475.859589,250.634003 
	C481.318481,250.569595 486.778870,250.636765 493.154694,250.646942 
z" data-index="3" style="opacity: 1; visibility: visible; fill: rgb(255, 255, 255); stroke: rgb(255, 255, 255);"></path>
<path fill="#000000" opacity="1.000000" stroke="none" d="
M627.838745,237.182678 
	C634.597168,226.871033 644.460632,227.675186 654.397034,228.907532 
	C656.353760,229.150223 658.249329,229.895218 660.169373,230.422241 
	C663.175720,231.247421 664.861511,233.112991 664.041504,236.295563 
	C663.190979,239.596512 660.548950,240.107895 657.698975,239.392197 
	C654.124573,238.494568 650.518066,237.999435 646.854736,237.961411 
	C644.000305,237.931793 641.178772,238.282074 638.820129,240.124481 
	C635.414978,242.784393 635.586670,246.008057 639.457825,247.951340 
	C641.808167,249.131149 644.437439,249.777542 646.974304,250.556580 
	C649.192688,251.237823 651.493896,251.658096 653.694580,252.386749 
	C662.981018,255.461594 666.842346,260.280273 666.247986,267.903748 
	C665.638062,275.725647 660.182373,280.903748 650.800598,282.128448 
	C643.735657,283.050720 636.866943,281.974365 630.362244,278.986542 
	C627.504211,277.673706 624.736023,275.973999 626.292969,272.224243 
	C627.714722,268.800323 630.759033,269.309387 633.575195,270.209595 
	C637.862549,271.580078 642.120178,272.905487 646.723755,272.691254 
	C648.771362,272.595947 650.701904,272.187927 652.497986,271.322937 
	C654.377808,270.417664 655.772156,269.008331 655.670593,266.679504 
	C655.574585,264.475616 654.000549,263.432129 652.232422,262.860870 
	C647.496277,261.330688 642.644653,260.145416 637.945984,258.514465 
	C627.292053,254.816422 624.184509,248.321213 627.838745,237.182678 
z" data-index="4" style="opacity: 1; visibility: visible; fill: rgb(255, 255, 255); stroke: rgb(255, 255, 255);"></path>
<path fill="#000000" opacity="1.000000" stroke="none" d="
M341.023804,219.826569 
	C341.461853,227.593246 345.391937,230.297318 352.752167,229.372604 
	C355.444550,229.034363 357.648560,230.617615 357.528351,233.831360 
	C357.400787,237.240372 355.124573,238.154724 352.115967,238.331802 
	C342.369690,238.905472 342.368805,238.944107 342.363495,248.703873 
	C342.360626,254.024841 342.301544,259.346954 342.391937,264.666504 
	C342.511780,271.721527 344.257904,273.276123 351.105011,272.663879 
	C351.932190,272.589874 352.751434,272.405640 353.579041,272.362061 
	C355.776489,272.246216 357.588715,272.895660 358.161194,275.259705 
	C358.741211,277.654907 357.846069,279.388550 355.648926,280.629395 
	C345.086731,286.594452 332.934143,280.197418 332.407532,268.139221 
	C332.037811,259.674072 332.049561,251.184433 332.171509,242.709763 
	C332.216980,239.551025 331.442047,237.993500 328.045502,238.279144 
	C326.425964,238.415359 324.548431,238.484467 323.880219,236.425522 
	C323.278748,234.572174 324.370331,233.260605 325.608673,232.061539 
	C329.311188,228.476532 333.005249,224.882828 336.709473,221.299606 
	C337.808807,220.236176 338.976501,219.308228 341.023804,219.826569 
z" data-index="5" style="opacity: 1; visibility: visible; fill: rgb(255, 255, 255); stroke: rgb(255, 255, 255);"></path>
<path fill="#000000" opacity="1.000000" stroke="none" d="
M591.084595,299.187927 
	C592.320374,295.915894 594.708069,295.513977 597.348145,295.748199 
	C602.174011,296.176239 603.776001,293.853088 603.737122,289.224060 
	C603.593262,272.092682 603.673889,254.959320 603.686951,237.826706 
	C603.688232,236.167114 603.600037,234.466965 603.918030,232.857681 
	C604.383057,230.504105 606.015015,229.033325 608.423645,228.876724 
	C611.014465,228.708267 613.001831,229.897247 613.718018,232.483322 
	C614.109619,233.897095 614.156433,235.438873 614.158142,236.923141 
	C614.179321,254.887390 614.231934,272.852081 614.130798,290.815796 
	C614.068298,301.919952 606.531799,307.622498 595.814575,304.921356 
	C592.998535,304.211609 590.850342,302.938446 591.084595,299.187927 
z" data-index="6" style="opacity: 1; visibility: visible; fill: rgb(255, 255, 255); stroke: rgb(255, 255, 255);"></path>
<path fill="#000000" opacity="1.000000" stroke="none" d="
M438.928284,261.995911 
	C438.813812,267.143768 438.799286,271.798920 438.557037,276.442230 
	C438.386139,279.718842 436.683533,281.747314 433.157440,281.609894 
	C429.889893,281.482574 428.282227,279.447723 428.261444,276.427002 
	C428.164307,262.299530 428.164703,248.170898 428.233246,234.043182 
	C428.245514,231.517807 429.511169,229.513962 432.177032,228.941376 
	C436.117371,228.095047 437.851868,230.732132 439.248840,234.109589 
	C443.366638,232.087509 446.652924,228.797745 451.335083,228.468887 
	C454.908264,228.217941 458.424438,228.165619 459.000122,232.613907 
	C459.572876,237.039719 456.431519,238.056107 452.683929,238.391449 
	C443.094940,239.249496 438.910522,243.948334 438.923706,253.518036 
	C438.927368,256.178070 438.928619,258.838104 438.928284,261.995911 
z" data-index="7" style="opacity: 1; visibility: visible; fill: rgb(255, 255, 255); stroke: rgb(255, 255, 255);"></path>
<path fill="#000000" opacity="1.000000" stroke="none" d="
M576.319092,274.248535 
	C577.270020,269.992889 579.833801,268.469940 583.648560,268.702637 
	C586.617920,268.883759 588.610352,270.302795 589.375000,273.245392 
	C590.400085,277.190186 588.533020,280.543365 584.926025,281.275574 
	C579.798218,282.316559 577.200928,280.323578 576.319092,274.248535 
z" data-index="8" style="opacity: 1; visibility: visible; fill: rgb(255, 255, 255); stroke: rgb(255, 255, 255);"></path>
<path fill="#000000" opacity="1.000000" stroke="none" d="
M614.522827,211.803467 
	C615.676392,215.242538 614.834900,217.685410 612.032471,219.322922 
	C609.856750,220.594269 607.594238,220.562347 605.498779,219.141678 
	C603.379211,217.704758 602.617310,215.586319 603.081726,213.104111 
	C603.508118,210.824860 604.772034,209.115143 607.148865,208.670288 
	C610.064819,208.124557 612.775452,208.403778 614.522827,211.803467 
z" data-index="9" style="opacity: 1; visibility: visible; fill: rgb(255, 255, 255); stroke: rgb(255, 255, 255);"></path>
</svg>